<svg id="SvgjsSvg1027" xmlns="http://www.w3.org/2000/svg" version="1.1" xmlns:xlink="http://www.w3.org/1999/xlink" xmlns:svgjs="http://svgjs.com/svgjs" width="100" height="100" viewBox="0 0 100 100"><title>Rectangle</title><desc>Created with Avocode.</desc><defs id="SvgjsDefs1028"></defs><path id="SvgjsPath1029" d="M78 808C78 780.38576 100.38576 758 128 758V758C155.61424 758 178 780.38576 178 808V808C178 835.61424 155.61424 858 128 858V858C100.38576 858 78 835.61424 78 808Z " fill="#f3af42" fill-opacity="1" transform="matrix(1,0,0,1,-78,-758)"></path><path id="SvgjsPath1030" d="M127.66 783.36C126.97999999999999 783.36 126.42999999999999 783.91 126.42999999999999 784.59C126.42999999999999 785.27 126.97999999999999 785.82 127.66 785.82C128.34 785.82 128.89 785.2700000000001 128.89 784.59C128.89 783.9100000000001 128.33999999999997 783.36 127.65999999999998 783.36ZM127.66 787.32C126.16 787.32 125 786.09 125 784.6600000000001C125 783.2300000000001 126.23 782.0000000000001 127.66 782.0000000000001C129.09 782.0000000000001 130.32 783.2300000000001 130.32 784.6600000000001C130.32 786.09 129.16 787.32 127.66 787.32Z " fill="#850f18" fill-opacity="1" transform="matrix(1,0,0,1,-78,-758)"></path><path id="SvgjsPath1031" d="M126.43 826.59C126.43 827.27 126.98 827.82 127.66000000000001 827.82C128.34 827.82 128.89000000000001 827.2700000000001 128.89000000000001 826.59C128.89000000000001 825.9100000000001 128.34 825.36 127.66000000000001 825.36C126.98 825.36 126.43 825.91 126.43 826.59ZM125 826.66C125 825.23 126.23 824 127.66 824C129.09 824 130.32 825.23 130.32 826.66C130.32 828.0899999999999 129.16 829.3199999999999 127.66 829.3199999999999C126.16 829.3199999999999 125 828.0899999999999 125 826.66Z " fill="#850f18" fill-opacity="1" transform="matrix(1,0,0,1,-78,-758)"></path><path id="SvgjsPath1032" d="M147.43 805.66C147.43 806.3399999999999 147.98000000000002 806.89 148.66 806.89C149.34 806.89 149.89 806.34 149.89 805.66C149.89 804.98 149.33999999999997 804.43 148.66 804.43C147.98 804.43 147.43 804.9799999999999 147.43 805.66ZM146 805.66C146 804.23 147.23 803 148.66 803C150.09 803 151.32 804.23 151.32 805.66C151.32 807.0899999999999 150.09 808.3199999999999 148.66 808.3199999999999C147.16 808.3199999999999 146 807.0899999999999 146 805.66Z " fill="#850f18" fill-opacity="1" transform="matrix(1,0,0,1,-78,-758)"></path><path id="SvgjsPath1033" d="M105.43 805.66C105.43 806.3399999999999 105.98 806.89 106.66000000000001 806.89C107.34000000000002 806.89 107.89000000000001 806.34 107.89000000000001 805.66C107.89000000000001 804.98 107.34000000000002 804.43 106.66000000000001 804.43C105.98 804.43 105.43 804.9799999999999 105.43 805.66ZM104 805.66C104 804.23 105.23 803 106.66 803C108.09 803 109.32 804.23 109.32 805.66C109.32 807.0899999999999 108.16 808.3199999999999 106.66 808.3199999999999C105.16 808.3199999999999 104 807.0899999999999 104 805.66Z " fill="#850f18" fill-opacity="1" transform="matrix(1,0,0,1,-78,-758)"></path><path id="SvgjsPath1034" d="M118.8 815.07H137.34V796.8000000000001H118.80000000000001ZM140.07 796.8V815H158.14V817.8H140.14V835.8H137.33999999999997V817.8H118.79999999999998V835.8H115.99999999999999V817.8H97.99999999999999V815H115.99999999999999V796.8H97.99999999999999V794H115.99999999999999V776H118.79999999999998V794H137.26999999999998V776H140.07V794H158.14V796.8Z " fill="#850f18" fill-opacity="1" transform="matrix(1,0,0,1,-78,-758)"></path><path id="SvgjsPath1035" d="M106.7 777C107.65 777 108.41 777.76 108.41 778.7C108.41 779.6500000000001 107.64999999999999 780.4100000000001 106.7 780.4100000000001C105.76 780.4100000000001 105 779.6500000000001 105 778.7C105 777.76 105.76 777 106.7 777 " fill="#850f18" fill-opacity="1" transform="matrix(1,0,0,1,-78,-758)"></path><path id="SvgjsPath1036" d="M108.16 780H105.7C104.75 780 104 780.75 104 781.7V785.25C104 786.07 104.61 786.82 105.43 786.95V790.7700000000001C105.43 791.45 105.98 792.07 106.73 792.07H107.27000000000001C107.95000000000002 792.07 108.57000000000001 791.5200000000001 108.57000000000001 790.7700000000001V786.95C109.39 786.82 110.00000000000001 786.07 110.00000000000001 785.25V781.7C109.93000000000002 780.82 109.11000000000001 780 108.16000000000001 780 " fill="#850f18" fill-opacity="1" transform="matrix(1,0,0,1,-78,-758)"></path><path id="SvgjsPath1037" d="M127.7 798C128.65 798 129.41 798.76 129.41 799.7C129.41 800.6500000000001 128.65 801.4100000000001 127.7 801.4100000000001C126.76 801.4100000000001 126 800.6500000000001 126 799.7C126 798.76 126.76 798 127.7 798 " fill="#850f18" fill-opacity="1" transform="matrix(1,0,0,1,-78,-758)"></path><path id="SvgjsPath1038" d="M129.16 802H126.7C125.75 802 125 802.75 125 803.77V807.3199999999999C125 808.14 125.61 808.89 126.43 809.02V812.84C126.43 813.52 126.98 814.14 127.73 814.14H128.27C128.95000000000002 814.14 129.57000000000002 813.59 129.57000000000002 812.84V808.95C130.39000000000001 808.82 131.00000000000003 808.07 131.00000000000003 807.25V803.7C130.86000000000004 802.75 130.11000000000004 802 129.16000000000003 802 " fill="#850f18" fill-opacity="1" transform="matrix(1,0,0,1,-78,-758)"></path><path id="SvgjsPath1039" d="M148.7 777C149.64999999999998 777 150.41 777.76 150.41 778.7C150.41 779.6500000000001 149.65 780.4100000000001 148.7 780.4100000000001C147.76 780.4100000000001 147 779.6500000000001 147 778.7C147 777.76 147.76 777 148.7 777 " fill="#850f18" fill-opacity="1" transform="matrix(1,0,0,1,-78,-758)"></path><path id="SvgjsPath1040" d="M150.23 780H147.76999999999998C146.82 780 145.99999999999997 780.75 145.99999999999997 781.7V785.25C145.99999999999997 786.07 146.60999999999999 786.82 147.42999999999998 786.95V790.7700000000001C147.42999999999998 791.45 147.98 792.07 148.73 792.07H149.26999999999998C149.95 792.07 150.57 791.5200000000001 150.57 790.7700000000001V786.95C151.39 786.82 152 786.07 152 785.25V781.7C151.93 780.82 151.18 780 150.23 780 " fill="#850f18" fill-opacity="1" transform="matrix(1,0,0,1,-78,-758)"></path><path id="SvgjsPath1041" d="M106.7 819C107.65 819 108.41 819.76 108.41 820.7C108.41 821.6500000000001 107.64999999999999 822.4100000000001 106.7 822.4100000000001C105.76 822.4100000000001 105 821.6500000000001 105 820.7C105 819.76 105.76 819 106.7 819 " fill="#850f18" fill-opacity="1" transform="matrix(1,0,0,1,-78,-758)"></path><path id="SvgjsPath1042" d="M108.16 823H105.7C104.75 823 104 823.75 104 824.77V828.3199999999999C104 829.14 104.61 829.89 105.43 830.02V833.84C105.43 834.52 105.98 835.14 106.73 835.14H107.27000000000001C107.95000000000002 835.14 108.57000000000001 834.59 108.57000000000001 833.84V829.95C109.39 829.82 110.00000000000001 829.07 110.00000000000001 828.25V824.7C109.93000000000002 823.82 109.11000000000001 823 108.16000000000001 823 " fill="#850f18" fill-opacity="1" transform="matrix(1,0,0,1,-78,-758)"></path><path id="SvgjsPath1043" d="M148.7 819C149.64999999999998 819 150.41 819.76 150.41 820.7C150.41 821.6500000000001 149.65 822.4100000000001 148.7 822.4100000000001C147.76 822.4100000000001 147 821.6500000000001 147 820.7C147 819.76 147.76 819 148.7 819 " fill="#850f18" fill-opacity="1" transform="matrix(1,0,0,1,-78,-758)"></path><path id="SvgjsPath1044" d="M150.23 823H147.76999999999998C146.82 823 145.99999999999997 823.75 145.99999999999997 824.77V828.3199999999999C145.99999999999997 829.14 146.60999999999999 829.89 147.42999999999998 830.02V833.84C147.42999999999998 834.52 147.98 835.14 148.73 835.14H149.26999999999998C149.95 835.14 150.57 834.59 150.57 833.84V829.95C151.39 829.82 152 829.07 152 828.25V824.7C151.93 823.82 151.18 823 150.23 823 " fill="#850f18" fill-opacity="1" transform="matrix(1,0,0,1,-78,-758)"></path></svg>