<svg id="SvgjsSvg1023" xmlns="http://www.w3.org/2000/svg" version="1.1" xmlns:xlink="http://www.w3.org/1999/xlink" xmlns:svgjs="http://svgjs.com/svgjs" width="100" height="100" viewBox="0 0 100 100"><title>Rectangle</title><desc>Created with Avocode.</desc><defs id="SvgjsDefs1024"></defs><path id="SvgjsPath1025" d="M268 808C268 780.38576 290.38576 758 318 758V758C345.61424 758 368 780.38576 368 808V808C368 835.61424 345.61424 858 318 858V858C290.38576 858 268 835.61424 268 808Z " fill="#f3af42" fill-opacity="1" transform="matrix(1,0,0,1,-268,-758)"></path><path id="SvgjsPath1026" d="M329.69 811.21C330.69 811.63 331.63 812.11 332.5 812.64C336.36 814.99 338.71 818.13 338.71 821.76C338.71 824.27 338.81 826.49 338.77 828.25H333V825.67C333.02 824.9399999999999 332.3 824.28 331.57 824.36C330.93 824.4300000000001 330.40999999999997 825.03 330.42 825.67C330.42 828.25 330.42 830.78 330.42 833.36C328.47 833.37 326.2 833.37 323.77000000000004 833.38L320.86 815.95C321.37 815.6500000000001 321.89 815.26 322.33000000000004 814.9200000000001L322.80000000000007 815.8900000000001C323.1500000000001 816.6400000000001 324.32000000000005 816.8300000000002 324.9000000000001 816.2300000000001ZM311.53 816.23C312.09999999999997 816.83 313.27 816.64 313.63 815.89L314.05 815C314.49 815.33 314.99 815.64 315.46000000000004 815.95L312.56000000000006 833.4000000000001C310.05000000000007 833.4000000000001 307.93000000000006 833.3900000000001 305.90000000000003 833.3800000000001C305.89000000000004 830.7900000000001 305.90000000000003 828.2600000000001 305.90000000000003 825.6700000000001C305.92 824.94 305.20000000000005 824.2800000000001 304.47 824.3600000000001C303.84000000000003 824.4300000000002 303.31 825.0300000000001 303.32000000000005 825.6700000000001V828.2500000000001H297.5400000000001C297.50000000000006 826.4600000000002 297.62000000000006 824.2100000000002 297.62000000000006 821.6800000000001C297.52000000000004 817.2700000000001 301.0400000000001 814.3100000000001 303.75000000000006 812.6200000000001C304.74000000000007 812.0500000000001 305.77000000000004 811.5300000000001 306.6700000000001 811.1500000000001ZM322.5 809.23C324.06 809.46 325.6 809.79 327.05 810.24L324.33 813.08ZM312.09 813.08L309.33 810.2C310.81 809.75 312.35999999999996 809.4100000000001 313.95 809.19ZM328.89 787.2C329.06 788.3900000000001 329.14 789.6 329.13 790.73C329.09 793.84 327.95 797.74 325.98 800.72C324.02000000000004 803.7 321.37 805.7 318.18 805.6600000000001C314.96 805.6200000000001 312.27 803.59 310.3 800.6200000000001C308.33 797.6400000000001 307.21000000000004 793.7500000000001 307.21000000000004 790.6500000000001C307.84000000000003 788.8700000000001 309.90000000000003 787.3400000000001 311.27000000000004 786.2900000000001C311.95000000000005 785.7800000000001 312.56000000000006 785.46 313.18000000000006 785.2900000000001C312.86000000000007 786.5000000000001 312.13000000000005 787.6800000000001 311.7900000000001 788.6800000000001C311.5100000000001 789.5200000000001 312.37000000000006 790.5100000000001 313.24000000000007 790.35C317.61000000000007 789.53 321.4700000000001 788.02 324.57000000000005 785.0400000000001C325.21000000000004 784.58 325.87000000000006 784.5100000000001 326.47 784.6C327.31 785.4200000000001 327.96000000000004 786.59 328.89000000000004 787.2ZM304.75 787.99C302.72 787.46 302.03 789.83 302.03 791.28C302.30999999999995 793.1999999999999 303.08 796.3 305.29999999999995 795.5699999999999C305.87999999999994 797.8199999999999 306.84 800.05 308.13999999999993 802.03C309.38999999999993 803.92 310.98999999999995 805.5799999999999 312.87999999999994 806.7099999999999C309.0299999999999 807.3199999999999 305.3999999999999 808.5999999999999 302.38999999999993 810.42C298.05999999999995 813.05 294.9799999999999 816.9699999999999 295.0399999999999 821.68C295.0799999999999 823.9499999999999 294.8699999999999 826.29 294.9199999999999 828.29C293.9299999999999 828.3399999999999 293.0199999999999 828.9499999999999 292.9999999999999 829.8499999999999V834.3899999999999C292.9999999999999 835.3499999999999 294.2899999999999 835.9299999999998 295.3799999999999 835.9999999999999C312.45999999999987 835.9099999999999 324.89999999999986 835.9999999999999 340.9399999999999 835.9999999999999C342.0699999999999 835.9899999999999 343.2999999999999 835.5099999999999 343.3199999999999 834.3899999999999V829.8499999999999C343.3199999999999 828.8899999999999 342.6799999999999 828.2499999999999 341.40999999999985 828.29C341.45999999999987 826.3399999999999 341.28999999999985 824.17 341.28999999999985 821.76C341.28999999999985 817.01 338.17999999999984 813.09 333.82999999999987 810.4399999999999C330.85999999999984 808.63 327.26999999999987 807.3699999999999 323.47999999999985 806.7499999999999C325.33999999999986 805.6299999999999 326.90999999999985 803.9899999999999 328.1399999999999 802.1299999999999C329.46999999999986 800.1299999999999 330.4299999999999 797.8499999999999 331.01999999999987 795.5699999999999C333.4499999999999 795.54 334.26999999999987 793.17 334.28999999999985 791.28C334.41999999999985 789.42 333.40999999999985 787.74 331.60999999999984 787.99C331.3799999999998 785.45 330.73999999999984 782.79 329.26999999999987 780.55C327.29999999999984 777.53 323.65999999999985 775.54 318.35999999999984 776.1099999999999C318.24999999999983 776.0899999999999 318.15999999999985 776.1199999999999 318.03999999999985 776.1099999999999C313.95999999999987 775.5199999999999 309.24999999999983 777.4199999999998 307.1299999999998 780.5299999999999C305.6499999999998 782.7699999999999 304.99999999999983 785.4499999999998 304.74999999999983 787.9899999999999Z " fill="#850f18" fill-opacity="1" transform="matrix(1,0,0,1,-268,-758)"></path></svg>