<svg id="SvgjsSvg1045" xmlns="http://www.w3.org/2000/svg" version="1.1" xmlns:xlink="http://www.w3.org/1999/xlink" xmlns:svgjs="http://svgjs.com/svgjs" width="100" height="100" viewBox="0 0 100 100"><title>Rectangle</title><desc>Created with Avocode.</desc><defs id="SvgjsDefs1046"></defs><path id="SvgjsPath1047" d="M462 808C462 780.38576 484.38576 758 512 758V758C539.61424 758 562 780.38576 562 808V808C562 835.61424 539.61424 858 512 858V858C484.38576 858 462 835.61424 462 808Z " fill="#f3af42" fill-opacity="1" transform="matrix(1,0,0,1,-462,-758)"></path><path id="SvgjsPath1048" d="M512.13 783H487.14C486.91999999999996 783 486.66999999999996 783.01 486.36 783.01C486.31 783.01 486.28000000000003 783.02 486.24 783.03C486.14 783.04 486.03000000000003 783.05 485.93 783.0799999999999C485.91 783.0899999999999 485.89 783.0899999999999 485.87 783.0999999999999C485.86 783.1099999999999 485.85 783.1099999999999 485.84000000000003 783.1099999999999C485.84000000000003 783.1099999999999 485.83000000000004 783.1099999999999 485.82000000000005 783.1199999999999V783.1199999999999C485.80000000000007 783.1199999999999 485.7900000000001 783.1299999999999 485.77000000000004 783.1399999999999C485.73 783.1599999999999 485.70000000000005 783.1899999999998 485.66 783.2099999999999C485.26000000000005 783.41 485.02000000000004 783.7599999999999 485 784.2499999999999V784.2899999999998V784.2999999999998C485 784.3299999999998 485.01 784.3599999999998 485.01 784.3899999999999V784.4399999999998V784.4599999999998V784.5299999999999C485.01 784.5299999999999 485.01 784.5299999999999 485.02 784.5299999999999V784.5699999999998C485.03999999999996 784.5799999999998 485.03999999999996 784.5799999999998 485.03999999999996 784.5899999999998C485.03999999999996 784.6599999999999 485.06999999999994 784.7199999999998 485.09 784.7899999999998C485.10999999999996 784.8299999999998 485.13 784.8699999999999 485.15 784.9099999999999C485.17999999999995 784.9699999999998 485.21999999999997 785.0399999999998 485.25 785.0799999999998C485.27 785.0999999999998 485.28 785.1099999999998 485.29 785.1299999999998C485.45000000000005 785.3599999999998 485.68 785.5099999999998 485.98 785.5799999999998C486.05 785.5999999999998 486.11 785.6199999999998 486.18 785.6299999999998C486.3 785.6399999999998 486.43 785.6599999999997 486.58 785.6799999999997C486.64 785.6799999999997 486.71 785.6999999999997 486.78 785.7099999999997V810.2899999999997C486.53 810.3299999999997 486.28 810.3399999999997 486.03 810.4099999999997C485.35999999999996 810.5699999999997 484.96 811.0799999999997 485 811.7799999999997C485.04 812.4299999999997 485.52 812.9399999999997 486.2 813.0299999999997C486.45 813.0499999999997 486.71 813.0299999999997 486.96999999999997 813.0299999999997H505.59999999999997V812.3499999999998C505.59999999999997 811.6899999999998 505.59999999999997 810.9999999999998 505.64 810.2899999999998H489.61V787.1399999999999L489.62 787.0299999999999V785.9599999999998C489.66 785.7499999999998 489.75 785.6799999999998 490 785.6599999999999C490.06 785.6599999999999 490.11 785.6599999999999 490.16 785.6399999999999H507.35H511.92C511.89000000000004 784.9299999999998 511.90000000000003 783.9899999999999 512.13 782.9999999999999 " fill="#850f18" fill-opacity="1" transform="matrix(1,0,0,1,-462,-758)"></path><path id="SvgjsPath1049" d="M536.87 808.04C536.8100000000001 806.8399999999999 536.59 805.5899999999999 535.77 804.67C534.88 803.6899999999999 529.93 802.64 528.78 802.25L528.5799999999999 802.19L528.3399999999999 802.1400000000001L527.8699999999999 802.0000000000001C527.8299999999999 802.2700000000001 527.7999999999998 802.5300000000001 527.7499999999999 802.7800000000001C527.1199999999999 806.4800000000001 526.2599999999999 810.0200000000001 524.8799999999999 813.4100000000001C524.8799999999999 813.4000000000001 524.6099999999999 811.34 524.3599999999999 809.3800000000001C524.0999999999999 807.5500000000001 523.8699999999999 805.7700000000001 523.8699999999999 805.7000000000002C523.9199999999998 805.5800000000002 523.9699999999999 805.4800000000001 523.9999999999999 805.3800000000001C524.0499999999998 805.2700000000001 524.0999999999999 805.1700000000001 524.1399999999999 805.0900000000001C524.1499999999999 805.0500000000002 524.1499999999999 805.0400000000002 524.1699999999998 805.0200000000001C524.2199999999998 804.9000000000001 524.2699999999999 804.7800000000001 524.3199999999998 804.6600000000001C524.3599999999998 804.6300000000001 524.3899999999999 804.5600000000001 524.4099999999999 804.5300000000001C524.4899999999999 804.3800000000001 524.5799999999998 804.21 524.5799999999998 804.0200000000001C524.5799999999998 803.8500000000001 524.5099999999998 803.7 524.4599999999998 803.58L524.4299999999998 803.51C524.4299999999998 803.48 524.4299999999998 803.48 524.4099999999999 803.4399999999999C524.3899999999999 803.43 524.3899999999999 803.39 524.3699999999999 803.38C524.3699999999999 803.36 524.3599999999999 803.32 524.3199999999999 803.29C524.3199999999999 803.26 524.3199999999999 803.24 524.31 803.24C524.26 803.15 524.2099999999999 803.12 524.15 803.1C524.1 803.0500000000001 524.04 803.0500000000001 523.98 803.0400000000001H523.87C523.83 803.0000000000001 523.8 803.0000000000001 523.76 803.0000000000001H521.29C521.27 803.0000000000001 521.2199999999999 803.0000000000001 521.1899999999999 803.0400000000001H521.05C521 803.0500000000001 520.9499999999999 803.0500000000001 520.88 803.09C520.83 803.12 520.78 803.15 520.7 803.3100000000001C520.6800000000001 803.32 520.6600000000001 803.36 520.6600000000001 803.3800000000001C520.6500000000001 803.3900000000001 520.6300000000001 803.4300000000001 520.6300000000001 803.44C520.6300000000001 803.48 520.6300000000001 803.48 520.6100000000001 803.5100000000001L520.5800000000002 803.5600000000001C520.5300000000002 803.7 520.4600000000002 803.85 520.4600000000002 804.0200000000001C520.4600000000002 804.2100000000002 520.5600000000002 804.3800000000001 520.6300000000001 804.5300000000001C520.6600000000001 804.5600000000001 520.6800000000001 804.6300000000001 520.7100000000002 804.6600000000001C520.7600000000001 804.7800000000001 520.8100000000002 804.9000000000001 520.8700000000001 805.0200000000001C520.8800000000001 805.0500000000001 520.8800000000001 805.07 520.9000000000001 805.1000000000001C520.9300000000001 805.1900000000002 520.9800000000001 805.2900000000002 521.0300000000001 805.3900000000001C521.09 805.4900000000001 521.1200000000001 805.6000000000001 521.1700000000001 805.7C521.1700000000001 805.7700000000001 520.95 807.5500000000001 520.7 809.38C520.46 811.26 520.2 813.1899999999999 520.1500000000001 813.4C519.83 812.5799999999999 519.5300000000001 811.75 519.2500000000001 810.92L518.0700000000002 806.65C517.7100000000002 805.14 517.4200000000002 803.61 517.2000000000002 802.0699999999999C517.1000000000001 802.0799999999999 517.0200000000002 802.1199999999999 516.8800000000001 802.15H516.8300000000002C516.7800000000002 802.17 516.7100000000002 802.1899999999999 516.6300000000001 802.1999999999999L516.44 802.27C516.2700000000001 802.3 516.1 802.36 515.95 802.41C514.88 802.76 513.7900000000001 803.02 512.71 803.3C511.79 803.53 510.8 803.65 509.97 804.12C509.20000000000005 804.54 508.95000000000005 805.42 508.68 806.2C507.92 808.38 508.04 810.7700000000001 508.01 813.0600000000001C508 813.74 508 814.4300000000001 508.01 815.11C508.06 817.36 508.17 819.64 508.28 821.91C508.36999999999995 823.76 508.46999999999997 825.6 508.57 827.42C508.59 827.78 508.61 828.13 508.62 828.49C508.64 828.84 508.66 829.22 508.69 829.57C508.73 830.1500000000001 509.1 830.9300000000001 509.64 831.24C510.34999999999997 831.61 511.15 831.95 512.17 832.3C512.37 832.39 512.5899999999999 832.4599999999999 512.8299999999999 832.54C513.17 832.66 513.1999999999999 832.6899999999999 513.2499999999999 832.9599999999999C513.8799999999999 835.9 515.8999999999999 837.53 518.8999999999999 837.54C519.9099999999999 837.56 520.9299999999998 837.56 521.9499999999998 837.56H523.0999999999998C524.1199999999998 837.56 525.1399999999998 837.56 526.1499999999997 837.54C529.1499999999997 837.53 531.1699999999997 835.9 531.7999999999997 832.9599999999999C531.8499999999997 832.6899999999999 531.8799999999998 832.66 532.2199999999997 832.54C532.4399999999997 832.4699999999999 532.6799999999997 832.39 532.8799999999997 832.3C533.8799999999997 831.9499999999999 534.6799999999996 831.6099999999999 535.4099999999996 831.24C535.9499999999996 830.9300000000001 536.3199999999996 830.15 536.3599999999997 829.57C536.3699999999997 829.22 536.4099999999996 828.84 536.4299999999997 828.49C536.4399999999997 828.13 536.4599999999997 827.78 536.4799999999997 827.42C536.5799999999997 825.66 536.6799999999997 823.88 536.7699999999996 822.0999999999999C536.8899999999996 819.7699999999999 536.9899999999997 817.43 537.0399999999996 815.1099999999999C537.0499999999996 814.43 537.0499999999996 813.7299999999999 537.0399999999996 813.06C537.0199999999996 811.38 536.9499999999996 809.68 536.8699999999997 808.04 " fill="#850f18" fill-opacity="1" transform="matrix(1,0,0,1,-462,-758)"></path><path id="SvgjsPath1050" d="M528.53 788.46C528.93 788.48 529.38 788.5300000000001 529.87 788.59C529.85 788.44 529.8 788.2800000000001 529.72 788.14C529.6600000000001 788.03 529.59 787.93 529.52 787.85C527.1 787.21 526.37 785.11 526.1899999999999 784.41C526.13 784.36 526.0799999999999 784.3199999999999 526.02 784.29C522.87 787.78 518.34 787.9699999999999 516.4499999999999 787.89C516.2499999999999 788.08 516.1099999999999 788.31 516.03 788.59C516.49 788.5300000000001 516.92 788.48 517.3 788.46C517.9799999999999 788.4200000000001 518.5699999999999 788.4000000000001 519.13 788.4000000000001C519.93 788.4000000000001 520.65 788.44 521.34 788.5200000000001C521.84 788.58 522.37 788.6400000000001 522.9200000000001 788.6500000000001C523.46 788.6400000000001 524.0000000000001 788.58 524.5000000000001 788.5200000000001C525.1900000000002 788.44 525.9100000000001 788.4000000000001 526.7000000000002 788.4000000000001C527.2600000000001 788.4000000000001 527.8600000000001 788.4200000000001 528.5300000000002 788.46ZM526.49 791.07C525.79 791.07 525.23 790.5 525.23 789.8100000000001C525.23 789.6500000000001 525.27 789.49 525.32 789.35C525.09 789.4 524.85 789.47 524.61 789.5500000000001C524.29 789.6700000000001 524.14 789.9100000000001 524.1800000000001 790.2600000000001C524.19 790.3600000000001 524.19 790.4700000000001 524.2 790.57C524.21 790.71 524.22 790.86 524.24 791.0100000000001C524.36 791.9300000000001 524.85 792.4500000000002 525.75 792.6000000000001C525.98 792.6400000000001 526.21 792.6600000000001 526.43 792.6700000000002C526.52 792.6800000000002 526.6099999999999 792.6900000000002 526.6899999999999 792.6900000000002C526.79 792.6900000000002 526.89 792.6800000000002 526.9799999999999 792.6800000000002C527.1899999999999 792.6700000000002 527.3799999999999 792.6600000000002 527.5699999999999 792.6400000000002C528.28 792.5700000000002 528.7199999999999 792.2900000000002 528.91 791.7800000000002C529.05 791.4200000000002 529.14 790.9800000000002 529.17 790.5300000000002C529.2099999999999 789.8200000000002 529.04 789.6000000000003 528.3299999999999 789.4000000000002C528.0899999999999 789.3400000000003 527.8499999999999 789.2900000000002 527.6099999999999 789.2600000000002C527.6899999999999 789.4300000000002 527.7399999999999 789.6100000000002 527.7399999999999 789.8100000000002C527.7399999999999 790.5000000000002 527.18 791.0700000000002 526.4899999999999 791.0700000000002ZM519.21 791.07C518.52 791.07 517.96 790.5 517.95 789.8100000000001C517.95 789.6300000000001 518 789.45 518.07 789.2900000000001C517.88 789.32 517.69 789.35 517.5100000000001 789.4000000000001C516.7900000000001 789.6000000000001 516.6200000000001 789.82 516.6600000000001 790.5300000000001C516.69 790.9800000000001 516.7800000000001 791.4200000000001 516.9200000000001 791.7800000000001C517.1100000000001 792.2900000000001 517.5500000000001 792.57 518.2600000000001 792.6400000000001C518.4500000000002 792.6600000000001 518.6400000000001 792.6700000000001 518.8500000000001 792.6800000000001C518.9400000000002 792.6800000000001 519.0400000000002 792.69 519.1400000000001 792.69C519.2200000000001 792.6800000000001 519.3100000000001 792.6800000000001 519.4000000000001 792.6700000000001C519.6200000000001 792.6600000000001 519.8500000000001 792.6400000000001 520.08 792.6C520.98 792.45 521.48 791.9200000000001 521.59 791.01C521.61 790.86 521.62 790.71 521.63 790.5699999999999C521.64 790.4699999999999 521.64 790.3599999999999 521.65 790.26C521.6899999999999 789.91 521.54 789.67 521.22 789.55C520.9300000000001 789.4499999999999 520.65 789.38 520.36 789.3299999999999C520.4300000000001 789.4799999999999 520.46 789.6399999999999 520.46 789.81C520.46 790.5 519.9000000000001 791.0699999999999 519.21 791.0699999999999ZM527.51 796.59C528.29 795.37 528.86 794.09 529.25 792.76C528.94 793.11 528.54 793.31 528.04 793.38C527.5999999999999 793.45 527.16 793.48 526.75 793.48C526.34 793.48 525.93 793.45 525.55 793.39C524.62 793.24 523.9799999999999 792.72 523.6999999999999 791.88C523.54 791.4399999999999 523.4499999999999 790.98 523.3499999999999 790.54C523.3199999999999 790.41 523.3 790.29 523.2699999999999 790.16C523.2099999999999 789.88 523.1099999999999 789.8299999999999 522.9199999999998 789.8199999999999C522.7299999999998 789.8299999999999 522.6299999999999 789.8799999999999 522.5599999999998 790.16C522.5399999999998 790.29 522.5099999999999 790.41 522.4799999999998 790.54C522.3899999999998 790.98 522.2899999999997 791.4399999999999 522.1399999999998 791.88C521.8499999999998 792.72 521.2099999999998 793.24 520.2899999999997 793.39C519.8999999999997 793.4499999999999 519.4999999999998 793.48 519.0899999999997 793.48C518.6699999999997 793.48 518.2399999999997 793.45 517.7899999999997 793.39C517.2699999999998 793.31 516.8499999999997 793.08 516.5399999999997 792.6999999999999C516.5799999999997 792.8399999999999 516.6099999999998 792.9799999999999 516.6599999999997 793.1099999999999C517.0299999999997 794.2499999999999 517.5399999999997 795.3399999999999 518.1899999999997 796.3999999999999C519.2699999999998 798.1699999999998 520.8399999999997 799.0299999999999 522.9399999999997 799.1199999999999C524.8399999999997 799.0499999999998 526.4099999999997 798.2699999999999 527.5099999999998 796.5899999999999ZM531.62 789.67C531.86 789.9699999999999 531.87 790.37 531.79 791.0999999999999C531.6899999999999 792.0299999999999 531.4 792.8799999999999 530.8299999999999 793.6199999999999C530.6099999999999 793.8999999999999 530.3699999999999 794.1199999999999 529.9499999999999 794.0399999999998C529.8599999999999 794.0199999999999 529.67 794.1799999999998 529.6099999999999 794.2999999999998C529.4099999999999 794.7499999999999 529.2499999999999 795.2199999999998 529.05 795.6799999999998C528.31 797.3399999999998 527.3 798.7799999999999 525.51 799.4399999999998C523.81 800.0699999999998 522.0699999999999 800.0599999999998 520.36 799.4599999999998C518.66 798.8699999999998 517.64 797.5399999999998 516.9 795.9699999999998C516.6 795.3399999999998 516.36 794.6699999999998 516.0699999999999 793.9599999999998C515.4999999999999 794.1899999999998 515.18 793.9099999999999 514.9 793.5199999999998C514.1899999999999 792.5199999999998 513.93 791.4099999999997 514.01 790.2099999999998C514.02 790.1699999999998 514.02 790.1299999999998 514.02 790.0999999999998C514.0799999999999 789.4499999999998 514.54 789.2099999999998 515.13 789.1199999999998C515.06 788.1299999999998 515.02 787.1499999999997 514.93 786.1799999999997C514.78 784.5499999999997 514.8199999999999 782.9699999999997 516.02 781.6399999999998C515.64 781.4299999999997 515.28 781.2399999999998 514.9399999999999 781.0599999999997C514.8299999999999 780.9999999999998 514.7199999999999 780.9399999999997 514.6099999999999 780.8799999999998C514.6099999999999 780.8399999999998 514.6099999999999 780.7999999999997 514.6199999999999 780.7599999999998C514.7899999999998 780.7499999999998 514.9599999999999 780.7399999999998 515.1399999999999 780.7299999999998C515.8699999999999 780.7099999999998 516.6199999999999 780.6799999999998 517.4599999999999 780.6499999999997C517.0899999999999 780.0699999999997 516.8 779.6199999999998 516.4999999999999 779.1599999999997C516.4499999999999 779.0799999999997 516.3999999999999 778.9999999999998 516.3499999999999 778.9199999999997C516.4799999999999 778.9299999999997 516.5999999999999 778.9399999999997 516.7199999999999 778.9599999999997C517.7199999999999 779.1199999999997 518.6199999999999 779.5699999999997 519.68 779.5699999999997C519.4899999999999 778.9899999999997 519.3299999999999 778.5399999999997 519.15 777.9999999999997C519.38 778.0599999999996 519.56 778.0999999999997 519.73 778.1499999999996C520.22 778.2899999999996 520.73 778.4099999999996 521.2 778.5999999999997C522.5400000000001 779.1699999999997 524 779.0599999999997 525.3900000000001 779.3299999999997C527.0100000000001 779.6399999999996 528.4700000000001 780.2899999999997 529.6400000000001 781.4799999999997C530.4900000000001 782.3499999999997 530.95 783.3799999999997 530.9200000000001 784.5899999999997C530.9100000000001 785.2199999999997 530.8800000000001 785.8399999999997 530.85 786.4699999999997C530.84 786.7899999999997 530.82 787.0999999999997 530.8000000000001 787.4199999999997C530.7700000000001 787.9699999999997 530.7500000000001 788.5199999999998 530.72 789.0699999999997C531.1700000000001 789.2799999999997 531.45 789.4499999999997 531.62 789.6699999999997Z " fill="#850f18" fill-opacity="1" transform="matrix(1,0,0,1,-462,-758)"></path><path id="SvgjsPath1051" d="M516.24 800.22C516.11 800.25 516.01 800.28 515.87 800.32C515.11 800.57 514.3 800.7800000000001 513.45 801L512.82 801.15C512.62 801.1999999999999 512.4100000000001 801.25 512.21 801.3C511.39000000000004 801.4799999999999 510.39000000000004 801.6999999999999 509.40000000000003 802.25C507.74 803.19 507.19000000000005 804.78 506.86 805.75L506.8 805.9C506.34000000000003 807.2099999999999 506.14 808.55 506.06 809.85H491V787H512.37C512.41 787.32 512.42 787.66 512.45 787.98C511.83000000000004 788.66 511.52000000000004 789.5 511.45000000000005 790.27L511.44000000000005 790.4399999999999C511.31000000000006 792.3699999999999 511.78000000000003 794.1099999999999 512.86 795.6199999999999C513.3000000000001 796.2499999999999 513.8000000000001 796.6499999999999 514.29 796.9099999999999C514.38 797.1499999999999 514.48 797.3999999999999 514.5899999999999 797.6299999999999C515.0699999999999 798.6399999999999 515.6199999999999 799.4899999999999 516.2399999999999 800.2199999999999 " fill="#850f18" fill-opacity="1" transform="matrix(1,0,0,1,-462,-758)"></path></svg>