<svg id="SvgjsSvg1052" xmlns="http://www.w3.org/2000/svg" version="1.1" xmlns:xlink="http://www.w3.org/1999/xlink" xmlns:svgjs="http://svgjs.com/svgjs" width="100" height="100" viewBox="0 0 100 100"><title>Rectangle</title><desc>Created with Avocode.</desc><defs id="SvgjsDefs1053"></defs><path id="SvgjsPath1054" d="M658 808C658 780.38576 680.38576 758 708 758V758C735.61424 758 758 780.38576 758 808V808C758 835.61424 735.61424 858 708 858V858C680.38576 858 658 835.61424 658 808Z " fill="#f3af42" fill-opacity="1" transform="matrix(1,0,0,1,-658,-758)"></path><path id="SvgjsPath1055" d="M733.88 821.73H726.6899999999999C726.6899999999999 821.63 726.6999999999999 821.52 726.6999999999999 821.4200000000001C726.6999999999999 815.69 722.04 811.0400000000001 716.3299999999999 811.0400000000001C710.5999999999999 811.0400000000001 705.9499999999999 815.7 705.9499999999999 821.4200000000001C705.9499999999999 821.5200000000001 705.9599999999999 821.6300000000001 705.9599999999999 821.73H681.28V786.28H733.88ZM709.23 821.42C709.23 817.51 712.41 814.3299999999999 716.33 814.3299999999999C720.24 814.3299999999999 723.4200000000001 817.5099999999999 723.4200000000001 821.42C723.4200000000001 825.3299999999999 720.2400000000001 828.51 716.33 828.51C712.4100000000001 828.51 709.23 825.33 709.23 821.42ZM718.49 837.22L717.32 836.33C716.73 835.88 715.9200000000001 835.88 715.34 836.33L714.1600000000001 837.22V831.57C715.58 831.88 717.08 831.88 718.5000000000001 831.57V837.22ZM679.64 783C678.73 783 678 783.73 678 784.64V823.38C678 824.28 678.73 825.02 679.64 825.02H706.59C707.4100000000001 827.18 708.9200000000001 829.01 710.86 830.22V840.51C710.86 841.14 711.21 841.6899999999999 711.77 841.97C712.3299999999999 842.25 713 842.2 713.5 841.8100000000001L716.33 839.6800000000001L719.1600000000001 841.8100000000001C719.45 842.0300000000001 720.33 842.23 720.8800000000001 841.97C721.44 841.71 721.7900000000001 841.12 721.7900000000001 840.51V830.22C723.7300000000001 829.01 725.2500000000001 827.1800000000001 726.0600000000001 825.01H735.5300000000001C736.44 825.01 737.1700000000001 824.27 737.1700000000001 823.36V784.64C737.1600000000001 783.73 736.4300000000001 783 735.5200000000001 783Z " fill="#850f18" fill-opacity="1" transform="matrix(1,0,0,1,-658,-758)"></path><path id="SvgjsPath1056" d="M687.64 794.28H703.06C703.9699999999999 794.28 704.6999999999999 793.55 704.6999999999999 792.64C704.6999999999999 791.73 703.9699999999999 791 703.06 791H687.64C686.73 791 686 791.73 686 792.64C686 793.55 686.73 794.28 687.64 794.28 " fill="#850f18" fill-opacity="1" transform="matrix(1,0,0,1,-658,-758)"></path><path id="SvgjsPath1057" d="M687.64 809.28H728.34C729.25 809.28 729.99 808.55 729.99 807.64C729.99 806.73 729.25 806 728.34 806H687.64C686.73 806 686 806.73 686 807.64C686 808.55 686.73 809.28 687.64 809.28 " fill="#850f18" fill-opacity="1" transform="matrix(1,0,0,1,-658,-758)"></path><path id="SvgjsPath1058" d="M687.64 817.28H703.06C703.9699999999999 817.28 704.6999999999999 816.55 704.6999999999999 815.64C704.6999999999999 814.73 703.9699999999999 814 703.06 814H687.64C686.73 814 686 814.73 686 815.64C685.99 816.55 686.73 817.28 687.64 817.28 " fill="#850f18" fill-opacity="1" transform="matrix(1,0,0,1,-658,-758)"></path><path id="SvgjsPath1059" d="M687.64 802.28H728.34C729.25 802.28 729.99 801.55 729.99 800.64C729.99 799.73 729.25 799 728.34 799H687.64C686.73 799 686 799.73 686 800.64C685.99 801.55 686.73 802.28 687.64 802.28 " fill="#850f18" fill-opacity="1" transform="matrix(1,0,0,1,-658,-758)"></path></svg>