<svg id="SvgjsSvg1060" xmlns="http://www.w3.org/2000/svg" version="1.1" xmlns:xlink="http://www.w3.org/1999/xlink" xmlns:svgjs="http://svgjs.com/svgjs" width="100" height="100" viewBox="0 0 100 100"><title>Rectangle</title><desc>Created with Avocode.</desc><defs id="SvgjsDefs1061"></defs><path id="SvgjsPath1062" d="M847 808C847 780.38576 869.38576 758 897 758V758C924.61424 758 947 780.38576 947 808V808C947 835.61424 924.61424 858 897 858V858C869.38576 858 847 835.61424 847 808Z " fill="#f3af42" fill-opacity="1" transform="matrix(1,0,0,1,-847,-758)"></path><path id="SvgjsPath1063" d="M894.25 800.74C894.22 800.8 894.2 800.87 894.17 800.9300000000001C893.91 801.46 893.64 801.96 893.3499999999999 802.46C893.3499999999999 802.46 893.3499999999999 802.46 893.3499999999999 802.47C893.42 802.8000000000001 893.43 803.1700000000001 893.3399999999999 803.57C893.04 804.86 892.5099999999999 806.1800000000001 891.78 807.3900000000001C891.1999999999999 813.7700000000001 885.76 818.7600000000001 879.13 818.7600000000001C872.12 818.7600000000001 866.4399999999999 813.1700000000001 866.4399999999999 806.2700000000001C866.4399999999999 805.6800000000001 866.4799999999999 805.1000000000001 866.5699999999999 804.5300000000001C865.56 803.0300000000001 864.6999999999999 801.46 864.3199999999999 800.0000000000001C863.4799999999999 801.9200000000001 862.9999999999999 804.0400000000001 862.9999999999999 806.2700000000001C862.9999999999999 815.0300000000001 870.2299999999999 822.1400000000001 879.1299999999999 822.1400000000001C888.0499999999998 822.1400000000001 895.2699999999999 815.0400000000001 895.2699999999999 806.2700000000001C895.2699999999999 804.32 894.8999999999999 802.4600000000002 894.2499999999999 800.7400000000001 " fill="#850f18" fill-opacity="1" transform="matrix(1,0,0,1,-847,-758)"></path><path id="SvgjsPath1064" d="M893.91 807.62C893.63 809.28 892.8299999999999 810.93 892.26 812.53C892.16 812.8299999999999 892 813.11 891.81 813.35C891.8199999999999 813.48 891.8399999999999 813.61 891.8399999999999 813.74C891.8399999999999 820.4 886.1499999999999 825.8 879.1299999999999 825.8C872.1199999999999 825.8 866.4399999999998 820.4 866.4399999999998 813.74C866.4399999999998 813.3 866.4699999999998 812.87 866.5099999999999 812.44C865.4399999999998 810.8900000000001 864.6599999999999 808.9100000000001 864.6699999999998 807C863.6099999999999 809.03 862.9999999999999 811.31 862.9999999999999 813.74C862.9999999999999 822.2 870.2299999999999 829.0600000000001 879.1299999999999 829.0600000000001C888.0499999999998 829.0600000000001 895.2699999999999 822.2 895.2699999999999 813.74C895.2699999999999 811.5600000000001 894.7799999999999 809.49 893.9099999999999 807.62 " fill="#850f18" fill-opacity="1" transform="matrix(1,0,0,1,-847,-758)"></path><path id="SvgjsPath1065" d="M894.14 815C894.36 817.35 893.62 819.7 892.15 821.72C892.03 821.89 891.88 822.0400000000001 891.72 822.1700000000001C890.9100000000001 828.09 885.59 832.6700000000001 879.13 832.6700000000001C872.63 832.6700000000001 867.28 828.0200000000001 866.53 822.0300000000001C865.9499999999999 821.3900000000001 865.4499999999999 820.6700000000001 865.03 819.8900000000001C864.61 819.6100000000001 864.29 819.1500000000001 864.17 818.4600000000002C864.04 817.7000000000002 863.88 816.9700000000001 863.67 816.2200000000001C863.24 817.6100000000001 863 819.0800000000002 863 820.6100000000001C863 829.0700000000002 870.23 835.9300000000002 879.13 835.9300000000002C888.05 835.9300000000002 895.27 829.0700000000002 895.27 820.6100000000001C895.27 818.6200000000001 894.86 816.7400000000001 894.14 815.0000000000001 " fill="#850f18" fill-opacity="1" transform="matrix(1,0,0,1,-847,-758)"></path><path id="SvgjsPath1066" d="M866.44 798.87C866.44 791.97 872.12 786.38 879.1300000000001 786.38C886.1500000000001 786.38 891.8400000000001 791.97 891.8400000000001 798.87C891.8400000000001 805.77 886.1500000000001 811.36 879.1300000000001 811.36C872.1200000000001 811.36 866.44 805.77 866.44 798.87ZM863 798.87C863 807.64 870.23 814.74 879.13 814.74C888.05 814.74 895.27 807.64 895.27 798.87C895.27 790.11 888.05 783 879.13 783C870.23 783 863 790.11 863 798.87Z " fill="#850f18" fill-opacity="1" transform="matrix(1,0,0,1,-847,-758)"></path><path id="SvgjsPath1067" d="M879.73 805.37V799.68C880.75 800 881.4300000000001 800.37 881.77 800.78C882.12 801.1899999999999 882.29 801.74 882.29 802.42C882.29 803.2099999999999 882.05 803.88 881.56 804.42C881.0799999999999 804.9599999999999 880.4699999999999 805.28 879.7299999999999 805.37ZM878.61 797.62C877.75 797.37 877.13 797.02 876.77 796.59C876.41 796.1700000000001 876.23 795.63 876.23 794.99C876.23 794.35 876.44 793.79 876.87 793.32C877.29 792.85 877.88 792.5600000000001 878.61 792.45ZM881.63 798.41C881.32 798.28 880.6899999999999 798.1 879.73 797.86V792.47C880.35 792.6 880.84 792.85 881.19 793.24C881.5500000000001 793.64 881.7800000000001 794.2 881.9000000000001 794.9300000000001L883.8600000000001 794.6400000000001C883.6900000000002 793.4600000000002 883.1900000000002 792.5300000000001 882.3600000000001 791.8500000000001C881.7100000000002 791.3100000000002 880.8400000000001 791.0000000000001 879.7300000000001 790.8900000000001V790.0000000000001H878.6100000000001V790.8900000000001C877.3500000000001 791.0200000000001 876.4000000000001 791.3600000000001 875.7600000000001 791.9100000000001C874.8100000000001 792.7300000000001 874.3300000000002 793.8100000000001 874.3300000000002 795.1400000000001C874.3300000000002 795.8900000000001 874.4900000000001 796.5500000000001 874.8200000000002 797.1400000000001C875.1500000000002 797.7300000000001 875.6100000000001 798.19 876.2200000000001 798.5200000000001C877.0300000000001 798.9700000000001 877.8300000000002 799.2700000000001 878.6100000000001 799.4200000000001V805.3700000000001C877.8700000000001 805.2900000000001 877.2300000000001 804.9200000000001 876.6900000000002 804.2600000000001C876.3200000000002 803.7800000000001 876.0600000000002 803.0500000000001 875.9100000000002 802.0400000000001L874.0000000000002 802.4000000000001C874.0700000000003 803.3700000000001 874.3200000000003 804.19 874.7600000000002 804.8600000000001C875.1900000000002 805.5300000000001 875.7000000000003 806.0100000000001 876.3000000000002 806.3200000000002C876.8900000000002 806.6200000000001 877.6600000000002 806.8300000000002 878.6100000000001 806.9400000000002V808.8100000000002H879.7300000000001V806.9200000000002C881.0600000000002 806.8600000000002 882.1400000000001 806.4000000000002 882.9800000000001 805.5300000000002C883.8200000000002 804.6700000000002 884.2400000000001 803.5900000000001 884.2400000000001 802.2900000000002C884.2400000000001 801.7000000000002 884.1400000000001 801.1600000000002 883.9400000000002 800.6500000000002C883.7400000000001 800.1500000000002 883.4500000000002 799.7100000000002 883.0800000000002 799.3500000000003C882.7000000000002 798.9800000000002 882.2200000000001 798.6700000000003 881.6300000000001 798.4100000000002Z " fill="#850f18" fill-opacity="1" transform="matrix(1,0,0,1,-847,-758)"></path><path id="SvgjsPath1068" d="M929.25 793.74C929.22 793.8 929.2 793.87 929.17 793.9300000000001C928.91 794.46 928.64 794.96 928.36 795.46C928.35 795.46 928.35 795.46 928.35 795.47C928.4200000000001 795.8000000000001 928.4300000000001 796.1700000000001 928.34 796.57C928.0500000000001 797.86 927.51 799.1800000000001 926.7800000000001 800.3900000000001C926.2 806.7600000000001 920.7600000000001 811.7600000000001 914.1400000000001 811.7600000000001C907.1200000000001 811.7600000000001 901.44 806.1700000000001 901.44 799.2700000000001C901.44 798.6800000000001 901.48 798.1000000000001 901.57 797.5300000000001C900.5600000000001 796.0300000000001 899.7 794.46 899.33 793.0000000000001C898.48 794.9200000000001 898 797.0400000000001 898 799.2700000000001C898 808.0300000000001 905.23 815.1400000000001 914.14 815.1400000000001C923.05 815.1400000000001 930.27 808.0300000000001 930.27 799.2700000000001C930.27 797.32 929.9 795.4600000000002 929.25 793.7400000000001 " fill="#850f18" fill-opacity="1" transform="matrix(1,0,0,1,-847,-758)"></path><path id="SvgjsPath1069" d="M928.91 800.62C928.63 802.28 927.8299999999999 803.93 927.26 805.53C927.15 805.8299999999999 927 806.11 926.81 806.35C926.8199999999999 806.48 926.8399999999999 806.61 926.8399999999999 806.74C926.8399999999999 813.4 921.1499999999999 818.8 914.1399999999999 818.8C907.1199999999999 818.8 901.4399999999998 813.4 901.4399999999998 806.74C901.4399999999998 806.3 901.4699999999998 805.87 901.5099999999999 805.44C900.4399999999998 803.8900000000001 899.6599999999999 801.9100000000001 899.6699999999998 800C898.6099999999999 802.03 897.9999999999999 804.31 897.9999999999999 806.74C897.9999999999999 815.2 905.2199999999999 822.0600000000001 914.1399999999999 822.0600000000001C923.0499999999998 822.0600000000001 930.2699999999999 815.2 930.2699999999999 806.74C930.2699999999999 804.5600000000001 929.7799999999999 802.49 928.9099999999999 800.62 " fill="#850f18" fill-opacity="1" transform="matrix(1,0,0,1,-847,-758)"></path><path id="SvgjsPath1070" d="M929.14 808C929.37 810.35 928.62 812.7 927.15 814.72C927.03 814.89 926.88 815.0400000000001 926.72 815.1700000000001C925.9100000000001 821.09 920.59 825.6700000000001 914.14 825.6700000000001C907.63 825.6700000000001 902.28 821.0200000000001 901.53 815.0300000000001C900.9499999999999 814.3900000000001 900.4499999999999 813.6700000000001 900.03 812.8900000000001C899.61 812.6100000000001 899.29 812.1500000000001 899.17 811.4600000000002C899.03 810.7000000000002 898.88 809.9700000000001 898.67 809.2200000000001C898.24 810.6100000000001 898 812.0800000000002 898 813.6100000000001C898 822.0700000000002 905.22 828.9300000000002 914.14 828.9300000000002C923.05 828.9300000000002 930.27 822.0700000000002 930.27 813.6100000000001C930.27 811.6300000000001 929.86 809.7400000000001 929.14 808.0000000000001 " fill="#850f18" fill-opacity="1" transform="matrix(1,0,0,1,-847,-758)"></path><path id="SvgjsPath1071" d="M929.14 815C929.37 817.35 928.62 819.7 927.15 821.72C927.03 821.89 926.88 822.0400000000001 926.72 822.1700000000001C925.9100000000001 828.09 920.59 832.6700000000001 914.14 832.6700000000001C907.63 832.6700000000001 902.28 828.0200000000001 901.53 822.0300000000001C900.9499999999999 821.3900000000001 900.4499999999999 820.6700000000001 900.03 819.8900000000001C899.61 819.6100000000001 899.29 819.1500000000001 899.17 818.4600000000002C899.03 817.7000000000002 898.88 816.9700000000001 898.67 816.2200000000001C898.24 817.6100000000001 898 819.0800000000002 898 820.6100000000001C898 829.0700000000002 905.22 835.9300000000002 914.14 835.9300000000002C923.05 835.9300000000002 930.27 829.0700000000002 930.27 820.6100000000001C930.27 818.6200000000001 929.86 816.7400000000001 929.14 815.0000000000001 " fill="#850f18" fill-opacity="1" transform="matrix(1,0,0,1,-847,-758)"></path><path id="SvgjsPath1072" d="M901.44 791.87C901.44 784.97 907.12 779.38 914.1400000000001 779.38C921.1500000000001 779.38 926.8400000000001 784.97 926.8400000000001 791.87C926.8400000000001 798.77 921.1500000000001 804.36 914.1400000000001 804.36C907.1200000000001 804.36 901.44 798.77 901.44 791.87ZM898 791.87C898 800.64 905.23 807.74 914.14 807.74C923.05 807.74 930.27 800.64 930.27 791.87C930.27 783.11 923.05 776 914.14 776C905.23 776 898 783.11 898 791.87Z " fill="#850f18" fill-opacity="1" transform="matrix(1,0,0,1,-847,-758)"></path><path id="SvgjsPath1073" d="M914.73 798.37V792.68C915.75 793 916.4300000000001 793.37 916.77 793.78C917.12 794.1999999999999 917.29 794.74 917.29 795.42C917.29 796.2099999999999 917.05 796.88 916.56 797.42C916.0799999999999 797.9599999999999 915.4699999999999 798.28 914.7299999999999 798.37ZM913.61 790.62C912.75 790.37 912.13 790.02 911.77 789.59C911.41 789.1700000000001 911.23 788.63 911.23 787.99C911.23 787.35 911.44 786.79 911.87 786.32C912.29 785.85 912.88 785.5600000000001 913.61 785.45ZM916.63 791.41C916.32 791.28 915.6899999999999 791.1 914.73 790.86V785.47C915.35 785.6 915.84 785.85 916.19 786.24C916.5500000000001 786.64 916.7800000000001 787.2 916.9000000000001 787.9300000000001L918.8600000000001 787.6400000000001C918.6900000000002 786.4600000000002 918.1900000000002 785.5300000000001 917.3600000000001 784.8500000000001C916.7100000000002 784.3100000000002 915.8400000000001 784.0000000000001 914.7300000000001 783.8900000000001V783.0000000000001H913.6100000000001V783.8900000000001C912.3500000000001 784.0200000000001 911.4000000000001 784.3600000000001 910.7600000000001 784.9100000000001C909.8100000000001 785.7400000000001 909.3300000000002 786.8100000000001 909.3300000000002 788.1400000000001C909.3300000000002 788.8900000000001 909.4900000000001 789.5600000000001 909.8200000000002 790.1400000000001C910.1500000000002 790.7300000000001 910.6100000000001 791.19 911.2200000000001 791.5200000000001C912.0300000000001 791.9800000000001 912.8300000000002 792.2700000000001 913.6100000000001 792.4200000000001V798.3700000000001C912.8700000000001 798.2900000000001 912.2300000000001 797.9200000000001 911.6900000000002 797.2600000000001C911.3200000000002 796.7800000000001 911.0600000000002 796.0500000000001 910.9100000000002 795.0400000000001L909.0000000000002 795.4000000000001C909.0700000000003 796.3700000000001 909.3200000000003 797.19 909.7500000000002 797.8600000000001C910.1900000000003 798.5300000000001 910.7000000000003 799.0200000000001 911.3000000000002 799.3200000000002C911.8900000000002 799.6200000000001 912.6600000000002 799.8300000000002 913.6100000000001 799.9500000000002V801.8100000000002H914.7300000000001V799.9200000000002C916.0600000000002 799.8600000000002 917.1500000000001 799.4000000000002 917.9800000000001 798.5300000000002C918.8200000000002 797.6700000000002 919.2400000000001 796.5900000000001 919.2400000000001 795.2900000000002C919.2400000000001 794.7000000000002 919.1400000000001 794.1600000000002 918.9400000000002 793.6500000000002C918.7400000000001 793.1500000000002 918.4500000000002 792.7100000000002 918.0800000000002 792.3500000000003C917.7000000000002 791.9800000000002 917.2200000000001 791.6700000000003 916.6300000000001 791.4100000000002Z " fill="#850f18" fill-opacity="1" transform="matrix(1,0,0,1,-847,-758)"></path></svg>