<svg id="SvgjsSvg1094" xmlns="http://www.w3.org/2000/svg" version="1.1" xmlns:xlink="http://www.w3.org/1999/xlink" xmlns:svgjs="http://svgjs.com/svgjs" width="17" height="24" viewBox="0 0 17 24"><title>location</title><desc>Created with Avocode.</desc><defs id="SvgjsDefs1095"></defs><path id="SvgjsPath1096" d="M52.42 3418.44C49.65 3418.44 47.39 3416.19 47.39 3413.42C47.39 3410.65 49.65 3408.39 52.42 3408.39C52.61 3408.39 52.800000000000004 3408.43 52.99 3408.45V3406.06C52.79 3406.04 52.61 3406 52.42 3406C48.33 3406 45 3409.33 45 3413.42C45 3419.11 50.9 3425.78 52.42 3427.4C52.57 3427.2400000000002 52.760000000000005 3427.03 52.99 3426.78V3418.3900000000003C52.800000000000004 3418.4100000000003 52.61 3418.4400000000005 52.42 3418.4400000000005 " fill="#93c4cc" fill-opacity="1" transform="matrix(1,0,0,1,-44,-3405)"></path><path id="SvgjsPath1097" d="M53 3406V3408.39C55.5 3408.68 57.46 3410.7799999999997 57.46 3413.3599999999997C57.46 3415.9399999999996 55.5 3418.0399999999995 53 3418.3299999999995V3426.7199999999993C55.05 3424.419999999999 59.85 3418.4999999999995 59.85 3413.359999999999C59.85 3409.459999999999 56.82 3406.2999999999993 53 3405.999999999999 " fill="#217c87" fill-opacity="1" transform="matrix(1,0,0,1,-44,-3405)"></path><path id="SvgjsPath1098" d="M59.84 3413.42C59.84 3419.11 53.940000000000005 3425.78 52.42 3427.4C50.9 3425.78 45 3419.11 45 3413.42C45 3409.33 48.33 3406 52.42 3406C56.510000000000005 3406 59.84 3409.33 59.84 3413.42ZM44 3413.42C44 3420.33 51.74 3428.15 52.06 3428.48L52.42 3428.83L52.77 3428.48C53.1 3428.15 60.84 3420.33 60.84 3413.42C60.84 3408.78 57.06 3405 52.42 3405C47.78 3405 44 3408.78 44 3413.42Z " fill="#4a1c00" fill-opacity="1" transform="matrix(1,0,0,1,-44,-3405)"></path><path id="SvgjsPath1099" d="M56.05 3413.03C56.05 3415.2400000000002 54.25 3417.05 52.03 3417.05C49.81 3417.05 48 3415.2400000000002 48 3413.03C48 3410.8100000000004 49.81 3409 52.03 3409C54.25 3409 56.05 3410.81 56.05 3413.03ZM57.05 3413.03C57.05 3410.25 54.8 3408 52.03 3408C49.25 3408 47 3410.25 47 3413.03C47 3415.8 49.25 3418.05 52.03 3418.05C54.800000000000004 3418.05 57.05 3415.8 57.05 3413.03Z " fill="#4a1c00" fill-opacity="1" transform="matrix(1,0,0,1,-44,-3405)"></path></svg>