<svg id="SvgjsSvg1100" xmlns="http://www.w3.org/2000/svg" version="1.1" xmlns:xlink="http://www.w3.org/1999/xlink" xmlns:svgjs="http://svgjs.com/svgjs" width="19" height="18" viewBox="0 0 19 18"><title>phone</title><desc>Created with Avocode.</desc><defs id="SvgjsDefs1101"></defs><path id="SvgjsPath1102" d="M48.73 3459.05C48.98 3458.8100000000004 49.12 3458.48 49.12 3458.1400000000003C49.12 3457.8 48.98 3457.4700000000003 48.73 3457.2300000000005L46.839999999999996 3455.3800000000006C46.33 3454.8700000000003 45.489999999999995 3454.8700000000003 44.98 3455.3800000000006L44 3456.3400000000006L47.75 3460.0100000000007Z " fill="#84240c" fill-opacity="1" transform="matrix(1,0,0,1,-42,-3454)"></path><path id="SvgjsPath1103" d="M52.11 3467.22C51.08 3467.22 49.97 3466.64 48.8 3465.5C47.54 3464.26 46.949999999999996 3463.08 47.059999999999995 3462.01C47.12 3461.38 47.41 3460.94 47.66 3460.65L43.93 3457C43.589999999999996 3457.41 43.05 3458.25 43 3459.54C42.92 3461.75 44.36 3464.37 47.16 3467.11C49.959999999999994 3469.86 52.61 3471.26 54.91 3471.17C56.209999999999994 3471.12 57.059999999999995 3470.6 57.48 3470.27L53.739999999999995 3466.61C53.459999999999994 3466.86 52.99999999999999 3467.1400000000003 52.35999999999999 3467.2000000000003C52.279999999999994 3467.2100000000005 52.18999999999999 3467.2200000000003 52.10999999999999 3467.2200000000003 " fill="#b83a2e" fill-opacity="1" transform="matrix(1,0,0,1,-42,-3454)"></path><path id="SvgjsPath1104" d="M56.84 3464.36C56.34 3463.88 55.480000000000004 3463.88 54.980000000000004 3464.36L54.00000000000001 3465.33L57.75000000000001 3469L58.730000000000004 3468.04C59.24 3467.54 59.24 3466.72 58.730000000000004 3466.22Z " fill="#84240c" fill-opacity="1" transform="matrix(1,0,0,1,-42,-3454)"></path><path id="SvgjsPath1105" d="M47.53 3460.46C47.28 3460.75 46.99 3461.19 46.93 3461.82C46.82 3462.8900000000003 47.41 3464.06 48.68 3465.3C49.85 3466.4500000000003 50.96 3467.03 51.98 3467.03C52.07 3467.03 52.15 3467.02 52.239999999999995 3467.02C52.879999999999995 3466.95 53.33 3466.67 53.62 3466.42L57.349999999999994 3470.08C56.94 3470.41 56.089999999999996 3470.93 54.779999999999994 3470.98C52.48 3471.07 49.839999999999996 3469.67 47.029999999999994 3466.92C44.23 3464.1800000000003 42.8 3461.56 42.879999999999995 3459.35C42.919999999999995 3458.06 43.459999999999994 3457.22 43.8 3456.81ZM45.39 3455.23C45.9 3454.73 46.730000000000004 3454.73 47.24 3455.23L49.14 3457.09C49.39 3457.33 49.52 3457.65 49.52 3458C49.52 3458.34 49.39 3458.66 49.14 3458.9L48.160000000000004 3459.87L44.410000000000004 3456.19ZM55.21 3464.85C55.71 3464.36 56.57 3464.37 57.07 3464.85L58.96 3466.71C59.47 3467.21 59.47 3468.02 58.96 3468.52L57.980000000000004 3469.48L54.230000000000004 3465.81ZM54.82 3471.84C56.99 3471.75 58.15 3470.55 58.29 3470.3900000000003L59.58 3469.13C60.43 3468.29 60.43 3466.9300000000003 59.58 3466.1L57.69 3464.25C56.86 3463.44 55.419999999999995 3463.44 54.589999999999996 3464.25L53.3 3465.51C53.29 3465.5200000000004 53.29 3465.53 53.279999999999994 3465.5400000000004C53.269999999999996 3465.5600000000004 53.25999999999999 3465.5600000000004 53.24999999999999 3465.5700000000006C53.24999999999999 3465.580000000001 52.86999999999999 3466.0900000000006 52.14999999999999 3466.1600000000008C51.33999999999999 3466.250000000001 50.349999999999994 3465.730000000001 49.29999999999999 3464.7000000000007C48.24999999999999 3463.6700000000005 47.72999999999999 3462.710000000001 47.79999999999999 3461.9200000000005C47.85999999999999 3461.2000000000007 48.37999999999999 3460.8400000000006 48.40999999999999 3460.8200000000006C48.41999999999999 3460.8200000000006 48.41999999999999 3460.8100000000004 48.42999999999999 3460.8000000000006C48.43999999999999 3460.7900000000004 48.459999999999994 3460.7800000000007 48.46999999999999 3460.7700000000004L49.75999999999999 3459.51C50.16999999999999 3459.1000000000004 50.39999999999999 3458.57 50.39999999999999 3458C50.39999999999999 3457.42 50.169999999999995 3456.89 49.75999999999999 3456.48L47.85999999999999 3454.63C47.00999999999999 3453.79 45.61999999999999 3453.79 44.769999999999996 3454.63L43.48 3455.8900000000003C43.33 3456.0200000000004 42.089999999999996 3457.1600000000003 42.01 3459.2900000000004C41.9 3461.7900000000004 43.379999999999995 3464.5500000000006 46.41 3467.5200000000004C49.339999999999996 3470.3900000000003 52.08 3471.8400000000006 54.56999999999999 3471.8400000000006C54.64999999999999 3471.8400000000006 54.739999999999995 3471.8400000000006 54.81999999999999 3471.8400000000006Z " fill="#4a1c00" fill-opacity="1" transform="matrix(1,0,0,1,-42,-3454)"></path></svg>