<svg id="SvgjsSvg1106" xmlns="http://www.w3.org/2000/svg" version="1.1" xmlns:xlink="http://www.w3.org/1999/xlink" xmlns:svgjs="http://svgjs.com/svgjs" width="21" height="14" viewBox="0 0 21 14"><title>mail</title><desc>Created with Avocode.</desc><defs id="SvgjsDefs1107"></defs><path id="SvgjsPath1108" d="M50.18 3518.64C50.22 3518.68 50.24 3518.73 50.26 3518.7799999999997L52.03 3520.1899999999996L61.09 3513.0299999999997C61.050000000000004 3513.0099999999998 61 3512.9999999999995 60.95 3512.9999999999995H43.150000000000006C43.10000000000001 3512.9999999999995 43.050000000000004 3513.0099999999998 43.00000000000001 3513.0299999999997L49.92000000000001 3518.5099999999998C50.01000000000001 3518.52 50.11000000000001 3518.56 50.18000000000001 3518.64 " fill="#f3af42" fill-opacity="1" transform="matrix(1,0,0,1,-42,-3513)"></path><path id="SvgjsPath1109" d="M52.76 3521.37C52.61 3521.5 52.419999999999995 3521.5699999999997 52.22 3521.5699999999997C52.03 3521.5699999999997 51.83 3521.4999999999995 51.67 3521.3599999999997L50 3520.0499999999997L44 3525.37H60.55L54.489999999999995 3520Z " fill="#f3af42" fill-opacity="1" transform="matrix(1,0,0,1,-42,-3513)"></path><path id="SvgjsPath1110" d="M61.35 3524.7C61.370000000000005 3524.6499999999996 61.38 3524.6 61.38 3524.54V3514L55 3519.06Z " fill="#ac7113" fill-opacity="1" transform="matrix(1,0,0,1,-42,-3513)"></path><path id="SvgjsPath1111" d="M43 3514V3524.54C43 3524.62 43.03 3524.69 43.07 3524.7599999999998L49.44 3519.1Z " fill="#ac7113" fill-opacity="1" transform="matrix(1,0,0,1,-42,-3513)"></path><path id="SvgjsPath1112" d="M60.48 3525.64L54.43 3520.27L52.7 3521.64C52.540000000000006 3521.77 52.35 3521.83 52.160000000000004 3521.83C51.96 3521.83 51.760000000000005 3521.77 51.6 3521.63L49.940000000000005 3520.31L43.940000000000005 3525.64ZM49.28 3519.79L42.84 3514.69V3525.23C42.84 3525.31 42.870000000000005 3525.38 42.910000000000004 3525.44ZM43.26 3513.82C43.199999999999996 3513.82 43.15 3513.8300000000004 43.11 3513.8500000000004L50.03 3519.3300000000004C50.120000000000005 3519.3400000000006 50.21 3519.3800000000006 50.28 3519.4600000000005C50.32 3519.5000000000005 50.35 3519.5500000000006 50.370000000000005 3519.6000000000004L52.14000000000001 3521.0000000000005L61.20000000000001 3513.8500000000004C61.16000000000001 3513.8300000000004 61.11000000000001 3513.82 61.05000000000001 3513.82ZM61.47 3514.69L55.089999999999996 3519.75L61.44 3525.38C61.46 3525.34 61.47 3525.28 61.47 3525.23ZM62.28 3513.96C62.300000000000004 3514.05 62.31 3514.14 62.31 3514.23V3525.23C62.31 3525.55 62.18 3525.83 61.980000000000004 3526.05C61.980000000000004 3526.15 61.95 3526.25 61.88 3526.32C61.79 3526.4100000000003 61.68 3526.46 61.57 3526.46C61.5 3526.46 61.44 3526.44 61.38 3526.41C61.28 3526.44 61.17 3526.46 61.050000000000004 3526.46H43.260000000000005C43.17 3526.46 43.080000000000005 3526.45 43.00000000000001 3526.43C42.95000000000001 3526.45 42.900000000000006 3526.46 42.85000000000001 3526.46C42.74000000000001 3526.46 42.62000000000001 3526.41 42.540000000000006 3526.32C42.50000000000001 3526.28 42.470000000000006 3526.2200000000003 42.45 3526.17C42.18 3525.94 42 3525.61 42 3525.23V3514.23C42 3514.14 42.01 3514.05 42.03 3513.96C41.99 3513.84 42 3513.69 42.09 3513.57C42.150000000000006 3513.51 42.220000000000006 3513.4700000000003 42.300000000000004 3513.4500000000003C42.53 3513.1800000000003 42.870000000000005 3513.0000000000005 43.260000000000005 3513.0000000000005H61.050000000000004C61.440000000000005 3513.0000000000005 61.78 3513.1800000000003 62.010000000000005 3513.4500000000003C62.09 3513.4700000000003 62.160000000000004 3513.51 62.220000000000006 3513.57C62.31000000000001 3513.69 62.32000000000001 3513.84 62.28000000000001 3513.96Z " fill="#4a1c00" fill-opacity="1" transform="matrix(1,0,0,1,-42,-3513)"></path></svg>