<?xml version="1.0" encoding="UTF-8"?>
<svg width="128px" height="35px" viewBox="0 0 128 35" version="1.1" xmlns="http://www.w3.org/2000/svg" xmlns:xlink="http://www.w3.org/1999/xlink">
    <!-- Generator: Sketch 42 (36781) - http://www.bohemiancoding.com/sketch -->
    <title>Logo</title>
    <desc>Created with Sketch.</desc>
    <defs>
        <polygon id="path-1" points="0 34.46625 127.916177 34.46625 127.916177 0.564233871 0 0.564233871"></polygon>
    </defs>
    <g id="Page-1" stroke="none" stroke-width="1" fill="none" fill-rule="evenodd">
        <g id="Desktop" transform="translate(-40.000000, -10.000000)">
            <g id="Menu" transform="translate(0.000000, -203.000000)">
                <g id="Logo" transform="translate(40.000000, 213.000000)">
                    <g id="Page-1">
                        <path d="M34.4233912,6.4521371 C33.2430726,6.4521371 32.3391434,6.48318548 31.7110372,6.54584677 L31.7110372,14.7149597 L33.6808779,14.7149597 C34.6323823,14.7149597 35.4887363,14.6630242 36.2505062,14.5585887 C37.0111434,14.4541532 37.6534088,14.2565726 38.1767363,13.9641532 C38.7000637,13.6717339 39.1050195,13.2596371 39.3904708,12.7272984 C39.6759221,12.1955242 39.8186478,11.4910081 39.8186478,10.614879 C39.8186478,9.80141129 39.6759221,9.1228629 39.3904708,8.5803629 C39.1050195,8.0378629 38.7193204,7.60995968 38.2345062,7.29721774 C37.7491257,6.98391129 37.178223,6.76487903 36.5217982,6.64012097 C35.8648071,6.51423387 35.1653381,6.4521371 34.4233912,6.4521371 Z M38.6196389,16.6247177 C38.9237805,17.0418952 39.3094796,17.5894758 39.7761699,18.2674597 C40.2417274,18.9460081 40.722577,19.6968145 41.2175858,20.5210081 C41.7125947,21.3457661 42.2025062,22.2066532 42.6878867,23.1036694 C43.1732673,24.0006855 43.587285,24.8666532 43.9299398,25.7010081 L40.9038159,25.7010081 C40.5226478,24.9084274 40.1086301,24.105121 39.6617628,23.2916532 C39.2143292,22.477621 38.7623646,21.7002823 38.305869,20.9596371 C37.8488071,20.2189919 37.3968425,19.5246371 36.9494088,18.8777016 C36.5019752,18.2313306 36.0981522,17.6679435 35.7362407,17.1875403 C35.4887363,17.2089919 35.2372673,17.2191532 34.9795681,17.2191532 L34.194577,17.2191532 L31.7110372,17.2191532 L31.7110372,25.7010081 L28.942046,25.7010081 L28.942046,4.32334677 C29.7225062,4.11504032 30.5930195,3.97391129 31.5541522,3.90052419 C32.5147186,3.82826613 33.3954265,3.79157258 34.194577,3.79157258 C36.9731965,3.79157258 39.0908602,4.36568548 40.5470018,5.51278226 C42.002577,6.66100806 42.730931,8.37205645 42.730931,10.6459274 C42.730931,12.0860081 42.3831788,13.3177823 41.6888071,14.3395565 C40.993869,15.3618952 39.9710018,16.1234274 38.6196389,16.6247177 Z" id="Fill-1" fill="#850F18"></path>
                        <path d="M55.6698053,15.9982177 C55.6884956,14.6840242 55.388885,13.6041048 54.7704071,12.7584597 C54.1519292,11.9139435 53.3006726,11.491121 52.2155044,11.491121 C51.6060885,11.491121 51.0686018,11.6220887 50.6024779,11.8823306 C50.136354,12.1437016 49.7415929,12.4824113 49.4181947,12.8995887 C49.0942301,13.3173306 48.8421947,13.7971694 48.6609558,14.3396694 C48.4802832,14.8821694 48.3619115,15.4348306 48.304708,15.9982177 L55.6698053,15.9982177 Z M45.4785133,17.5946694 C45.4785133,16.1551532 45.6682478,14.8979758 46.0494159,13.8231371 C46.4300177,12.7482984 46.9340885,11.8563629 47.5621947,11.1473306 C48.1903009,10.4377339 48.9135575,9.90595968 49.7319646,9.55087903 C50.5498053,9.1963629 51.3880354,9.01854032 52.2443894,9.01854032 C54.2425487,9.01854032 55.7745841,9.70216935 56.8404956,11.0688629 C57.9058407,12.4355565 58.4393628,14.5169274 58.4393628,17.3129758 L58.4393628,17.7978952 C58.4393628,17.9966048 58.4291681,18.1789435 58.4104779,18.3460403 L48.2475044,18.3460403 C48.3619115,20.0362016 48.8087788,21.3193468 49.5892389,22.1960403 C50.3696991,23.0721694 51.5873982,23.5102339 53.243469,23.5102339 C54.1751504,23.5102339 54.960708,23.4216048 55.5984425,23.2443468 C56.2356106,23.0670887 56.7164602,22.8949113 57.0404248,22.72725 L57.4113982,25.1693468 C57.0874336,25.3567661 56.5216283,25.5554758 55.7122832,25.7637823 C54.9035044,25.9720887 53.9854159,26.0765242 52.9580177,26.0765242 C51.663292,26.0765242 50.5458407,25.8625726 49.6039646,25.4352339 C48.6609558,25.0078952 47.8855929,24.4179758 47.2767434,23.6666048 C46.6673274,22.9152339 46.2153628,22.0238629 45.9208496,20.9907984 C45.6257699,19.9577339 45.4785133,18.825879 45.4785133,17.5946694 L45.4785133,17.5946694 Z" id="Fill-3" fill="#850F18"></path>
                        <path d="M71.4347611,12.8685403 C71.1102301,12.576121 70.6446726,12.2944274 70.035823,12.0228952 C69.4264071,11.7519274 68.760354,11.6164435 68.0370973,11.6164435 C67.2758938,11.6164435 66.6245664,11.7682984 66.0819823,12.0703145 C65.5393982,12.3728952 65.0970619,12.7900726 64.7544071,13.3224113 C64.4123186,13.8541855 64.1642478,14.4853145 64.0124602,15.2157984 C63.8595398,15.9468468 63.783646,16.7287016 63.783646,17.5630565 C63.783646,19.4620887 64.2123894,20.9281371 65.068177,21.9606371 C65.924531,22.9937016 67.0669027,23.5102339 68.4941593,23.5102339 C69.2174159,23.5102339 69.8217345,23.4741048 70.3065487,23.4007177 C70.7919292,23.3278952 71.168,23.2494274 71.4347611,23.165879 L71.4347611,12.8685403 Z M71.4347611,1.91354032 L74.0893451,1.41281452 L74.0893451,25.2314435 C73.4804956,25.4194274 72.7000354,25.6074113 71.7490973,25.7948306 C70.7970265,25.9828145 69.7027965,26.0765242 68.4652743,26.0765242 C67.323469,26.0765242 66.2960708,25.878379 65.3825133,25.4820887 C64.4689558,25.0863629 63.6884956,24.5224113 63.0416991,23.7919274 C62.3943363,23.0620081 61.8947965,22.1695081 61.5430796,21.116121 C61.1907965,20.0621694 61.0152212,18.8778145 61.0152212,17.5630565 C61.0152212,16.3115242 61.1619115,15.1638629 61.4569912,14.1200726 C61.7520708,13.0774113 62.1847788,12.1798306 62.7562478,11.4290242 C63.3271504,10.6770887 64.0266195,10.093379 64.8546549,9.6756371 C65.6821239,9.25845968 66.6290973,9.04958871 67.6944425,9.04958871 C68.5513628,9.04958871 69.3080354,9.17547581 69.9644602,9.42555645 C70.620885,9.6756371 71.1102301,9.91612097 71.4347611,10.1453145 L71.4347611,1.91354032 Z" id="Fill-5" fill="#850F18"></path>
                        <path d="M84.2660248,26.0765242 C83.0675823,26.0765242 82.0152637,25.8676532 81.1119009,25.4504758 C80.2079717,25.0338629 79.4462018,24.4490242 78.8277239,23.6982177 C78.209246,22.9468468 77.7476531,22.0549113 77.4429451,21.0218468 C77.1388035,19.9887823 76.9864496,18.8467661 76.9864496,17.5946694 C76.9864496,16.3425726 77.1523965,15.1954758 77.4859894,14.1516855 C77.8190159,13.1084597 78.2896708,12.2063629 78.8990867,11.4442661 C79.5079363,10.6827339 80.2555469,10.0882984 81.1402195,9.65983065 C82.024892,9.23305645 83.0098124,9.01854032 84.0949805,9.01854032 C84.7616,9.01854032 85.4270867,9.08120161 86.0931398,9.20652419 C86.7597593,9.33128226 87.3969274,9.52999194 88.005777,9.80095968 L87.4071221,12.2735403 C87.0072637,12.0652339 86.5445381,11.8981371 86.021777,11.7728145 C85.4984496,11.6474919 84.9417062,11.5848306 84.3515469,11.5848306 C82.8676531,11.5848306 81.7298124,12.0962823 80.9402903,13.118621 C80.1502018,14.1415242 79.7554407,15.6335403 79.7554407,17.5946694 C79.7554407,18.4707984 79.8460602,19.2746694 80.0272991,20.0045887 C80.2079717,20.7356371 80.493423,21.361121 80.8836531,21.8827339 C81.2733168,22.4043468 81.7728566,22.8062823 82.3822726,23.0874113 C82.9911221,23.3691048 83.733069,23.5102339 84.609246,23.5102339 C85.3126796,23.5102339 85.9509805,23.4374113 86.5218832,23.2912016 C87.0927858,23.1455565 87.5396531,22.988621 87.8636177,22.8215242 L88.2345912,25.2630565 C88.0816708,25.3680565 87.8636177,25.4662823 87.5781664,25.5605565 C87.292715,25.6542661 86.9681841,25.73725 86.6074053,25.8106371 C86.2454938,25.8834597 85.8603611,25.9466855 85.4508743,25.998621 C85.041954,26.0505565 84.6471929,26.0765242 84.2660248,26.0765242" id="Fill-7" fill="#850F18"></path>
                        <path d="M95.9679434,26.0142016 C94.3311292,25.9718629 93.1700673,25.5868629 92.4847575,24.856379 C91.7994478,24.1258952 91.4573593,22.9889597 91.4573593,21.4444435 L91.4573593,1.91387903 L94.1119434,1.41258871 L94.1119434,20.9747661 C94.1119434,21.4551694 94.1498903,21.8514597 94.2263504,22.1642016 C94.3022442,22.4775081 94.4262796,22.7275887 94.5973239,22.9155726 C94.7683681,23.1035565 94.9971823,23.244121 95.2826336,23.3378306 C95.568085,23.4321048 95.9203681,23.5100081 96.3389168,23.5726694 L95.9679434,26.0142016 Z" id="Fill-9" fill="#850F18"></path>
                        <mask id="mask-2" fill="white">
                            <use xlink:href="#path-1"></use>
                        </mask>
                        <g id="Clip-12"></g>
                        <path d="M100.150372,25.7010081 L102.804956,25.7010081 L102.804956,9.42544355 L100.150372,9.42544355 L100.150372,25.7010081 Z M101.463221,6.48318548 C100.988035,6.48318548 100.58308,6.31100806 100.249487,5.96665323 C99.9170265,5.6228629 99.7505133,5.15826613 99.7505133,4.57399194 C99.7505133,3.99028226 99.9170265,3.52512097 100.249487,3.18133065 C100.58308,2.83697581 100.988035,2.66479839 101.463221,2.66479839 C101.938407,2.66479839 102.343363,2.83697581 102.676956,3.18133065 C103.009416,3.52512097 103.175929,3.99028226 103.175929,4.57399194 C103.175929,5.15826613 103.009416,5.6228629 102.676956,5.96665323 C102.343363,6.31100806 101.938407,6.48318548 101.463221,6.48318548 L101.463221,6.48318548 Z" id="Fill-11" fill="#850F18" mask="url(#mask-2)"></path>
                        <path d="M113.588786,1.41281452 C114.36868,1.41281452 115.040396,1.47547581 115.601671,1.60079839 C116.162945,1.72555645 116.557706,1.84071774 116.78652,1.94458871 L116.30114,4.44878226 C116.072326,4.32345968 115.748927,4.20378226 115.330379,4.08918548 C114.91183,3.97402419 114.397565,3.91700806 113.788715,3.91700806 C112.551193,3.91700806 111.685211,4.28733065 111.190768,5.02797581 C110.695759,5.76862097 110.448821,6.76499194 110.448821,8.01708871 L110.448821,9.42555645 L116.157848,9.42555645 L116.157848,11.8665242 L110.448821,11.8665242 L110.448821,25.701121 L107.793671,25.701121 L107.793671,7.9538629 C107.793671,5.86797581 108.259795,4.25628226 109.192609,3.11821774 C110.124857,1.98128226 111.590627,1.41281452 113.588786,1.41281452" id="Fill-13" fill="#850F18" mask="url(#mask-2)"></path>
                        <path d="M124.718726,1.41281452 C125.498619,1.41281452 126.16977,1.47547581 126.731611,1.60079839 C127.292319,1.72555645 127.687646,1.84071774 127.91646,1.94458871 L127.43108,4.44878226 C127.202265,4.32345968 126.878867,4.20378226 126.460319,4.08918548 C126.041204,3.97402419 125.527504,3.91700806 124.918655,3.91700806 C123.681133,3.91700806 122.81515,4.28733065 122.320708,5.02797581 C121.825699,5.76862097 121.578761,6.76499194 121.578761,8.01708871 L121.578761,9.42555645 L127.287788,9.42555645 L127.287788,11.8665242 L121.578761,11.8665242 L121.578761,25.701121 L118.923044,25.701121 L118.923044,7.9538629 C118.923044,5.86797581 119.389735,4.25628226 120.322549,3.11821774 C121.25423,1.98128226 122.720566,1.41281452 124.718726,1.41281452" id="Fill-14" fill="#850F18" mask="url(#mask-2)"></path>
                        <polygon id="Fill-15" fill="#412219" mask="url(#mask-2)" points="29.3489841 34.0210726 30.9070726 34.0210726 30.9070726 34.3908306 28.9321345 34.3908306 28.9321345 31.4186532 30.8442053 31.4186532 30.8442053 31.7838952 29.3489841 31.7838952 29.3489841 32.6735726 30.7558513 32.6735726 30.7558513 33.0303468 29.3489841 33.0303468"></polygon>
                        <polygon id="Fill-16" fill="#412219" mask="url(#mask-2)" points="37.9875681 33.7945323 37.9960637 33.7945323 37.9960637 31.4184839 38.4129133 31.4184839 38.4129133 34.3906613 37.886754 34.3906613 36.3116743 31.964371 36.3026124 31.964371 36.3026124 34.3906613 35.8857628 34.3906613 35.8857628 31.4184839 36.4294796 31.4184839"></polygon>
                        <path d="M45.8091611,32.0312097 C45.719108,31.9335484 45.6047009,31.8550806 45.4659398,31.7958065 C45.3266124,31.7370968 45.1719929,31.7083065 45.0003823,31.7083065 C44.8265062,31.7083065 44.6690549,31.7393548 44.5285947,31.8025806 C44.3881345,31.8658065 44.2686301,31.9516129 44.1706478,32.0605645 C44.0726655,32.1700806 43.9962053,32.2965323 43.9435327,32.4404839 C43.8897274,32.5844355 43.863108,32.7379839 43.863108,32.9005645 C43.863108,33.0654032 43.8897274,33.2206452 43.9435327,33.3662903 C43.9962053,33.5119355 44.0726655,33.6383871 44.1706478,33.7462097 C44.2686301,33.8540323 44.3898336,33.9387097 44.5331257,34.0002419 C44.6764177,34.0617742 44.8361345,34.0922581 45.0128425,34.0922581 C45.1533027,34.0922581 45.2824354,34.0798387 45.4002407,34.0544355 C45.5186124,34.0295968 45.6205593,33.9934677 45.7077805,33.9454839 L45.7077805,33.1184677 L45.0468248,33.1184677 L45.0468248,32.7662097 L46.1206655,32.7662097 L46.1206655,34.2062903 C45.9632142,34.2898387 45.7921699,34.3541935 45.6069664,34.3987903 C45.4217628,34.4433871 45.2190018,34.4659677 45.0003823,34.4659677 C44.7676035,34.4659677 44.5529487,34.4275806 44.3581168,34.3508065 C44.1627186,34.2740323 43.9950726,34.1662097 43.8546124,34.0273387 C43.7141522,33.8890323 43.6048425,33.7241935 43.5261168,33.5322581 C43.4479575,33.3403226 43.4083115,33.1297581 43.4083115,32.9005645 C43.4083115,32.6679839 43.4485239,32.4557258 43.5283823,32.2643548 C43.6082407,32.0724194 43.7192496,31.9087097 43.8614088,31.7732258 C44.0030018,31.6371774 44.1706478,31.5316129 44.3643469,31.4559677 C44.558046,31.3808871 44.7687363,31.3430645 44.9958513,31.3430645 C45.2348602,31.3430645 45.4472496,31.3780645 45.6341522,31.4475 C45.8210549,31.5175 45.9762407,31.6112097 46.0997097,31.7291935 L45.8091611,32.0312097 Z" id="Fill-17" fill="#412219" mask="url(#mask-2)"></path>
                        <polygon id="Fill-18" fill="#412219" mask="url(#mask-2)" points="51.6764319 34.0210726 53.0074053 34.0210726 53.0074053 34.3908306 51.2595823 34.3908306 51.2595823 31.4186532 51.6764319 31.4186532"></polygon>
                        <polygon id="Fill-19" fill="#412219" mask="url(#mask-2)" points="57.8344779 34.3906048 58.2513274 34.3906048 58.2513274 31.4184274 57.8344779 31.4184274"></polygon>
                        <path d="M64.8805381,31.968379 C64.8216354,31.8870887 64.741777,31.8204758 64.6403965,31.7685403 C64.5390159,31.7171694 64.4257416,31.6912016 64.2994407,31.6912016 C64.2320425,31.6912016 64.1635115,31.7002339 64.0949805,31.7188629 C64.0264496,31.7369274 63.9635823,31.7662823 63.9075115,31.8063629 C63.8514407,31.8475726 63.806131,31.8978145 63.7710159,31.9576532 C63.7359009,32.0180565 63.7183434,32.0903145 63.7183434,32.1738629 C63.7183434,32.2551532 63.7342018,32.3228952 63.766485,32.3776532 C63.7987681,32.4324113 63.8423788,32.4781371 63.8973168,32.5159597 C63.9516885,32.5543468 64.0162549,32.5859597 64.0910159,32.6130565 C64.1652106,32.6390242 64.2445027,32.6666855 64.328892,32.6949113 C64.4302726,32.7253952 64.5322195,32.7603952 64.6364319,32.7993468 C64.7400779,32.8388629 64.8340956,32.8902339 64.918485,32.9551532 C65.0028743,33.0195081 65.0714053,33.0996694 65.1252106,33.1962016 C65.1778832,33.2927339 65.205069,33.4152339 65.205069,33.5637016 C65.205069,33.7178145 65.1761841,33.8510403 65.1184142,33.9645081 C65.0606442,34.0779758 64.9847504,34.1716855 64.8890336,34.2456371 C64.7933168,34.3201532 64.6834407,34.3754758 64.5582726,34.4116048 C64.4331044,34.4482984 64.3051044,34.4663629 64.1731398,34.4663629 C63.9845381,34.4663629 63.8032991,34.4296694 63.6277239,34.3568468 C63.4521487,34.2845887 63.3065912,34.1767661 63.1916177,34.0339435 L63.5161487,33.7607177 C63.5858124,33.8645887 63.6803965,33.9487016 63.7982018,34.0130565 C63.9160071,34.0774113 64.0434407,34.1090242 64.1816354,34.1090242 C64.2518655,34.1090242 64.3220956,34.0994274 64.3923257,34.0802339 C64.4619894,34.0604758 64.5259894,34.0294274 64.5837593,33.9876532 C64.6415292,33.9453145 64.6885381,33.893379 64.7247858,33.8301532 C64.7616,33.7674919 64.7797239,33.6912823 64.7797239,33.6015242 C64.7797239,33.5117661 64.7604673,33.43725 64.7225204,33.3768468 C64.6845735,33.3164435 64.6336,33.2656371 64.5690336,33.2238629 C64.5044673,33.1815242 64.4291398,33.1459597 64.3436177,33.1166048 C64.2580956,33.08725 64.1674761,33.0573306 64.0717593,33.0262823 C63.9766088,32.9980565 63.8825912,32.9641855 63.7897062,32.9235403 C63.6973876,32.8828952 63.614131,32.8309597 63.541069,32.7682984 C63.4680071,32.7050726 63.4091044,32.6271694 63.3643611,32.5351532 C63.3196177,32.4425726 63.2969628,32.3279758 63.2969628,32.1907984 C63.2969628,32.0423306 63.3269805,31.9153145 63.3875823,31.808621 C63.4476177,31.7024919 63.5263434,31.6144274 63.6231929,31.5444274 C63.7200425,31.4744274 63.8299186,31.423621 63.9516885,31.3914435 C64.0740248,31.3587016 64.1969274,31.3428952 64.3203965,31.3428952 C64.4942726,31.3428952 64.6573876,31.373379 64.8091752,31.4354758 C64.9609628,31.4970081 65.0827327,31.5794274 65.1756177,31.6827339 L64.8805381,31.968379 Z" id="Fill-20" fill="#412219" mask="url(#mask-2)"></path>
                        <polygon id="Fill-21" fill="#412219" mask="url(#mask-2)" points="70.2171186 31.4184839 70.6339681 31.4184839 70.6339681 32.6609839 72.1416496 32.6609839 72.1416496 31.4184839 72.5630301 31.4184839 72.5630301 34.3906613 72.1416496 34.3906613 72.1416496 33.0301774 70.6339681 33.0301774 70.6339681 34.3906613 70.2171186 34.3906613"></polygon>
                        <path d="M84.6681487,31.968379 C84.609246,31.8870887 84.5288212,31.8204758 84.4280071,31.7685403 C84.3266265,31.7171694 84.2133522,31.6912016 84.0870513,31.6912016 C84.0190867,31.6912016 83.9511221,31.7002339 83.8825912,31.7188629 C83.8134938,31.7369274 83.7511929,31.7662823 83.6951221,31.8063629 C83.6390513,31.8475726 83.5931752,31.8978145 83.5580602,31.9576532 C83.5229451,32.0180565 83.5053876,32.0903145 83.5053876,32.1738629 C83.5053876,32.2551532 83.5218124,32.3228952 83.5540956,32.3776532 C83.5863788,32.4324113 83.6299894,32.4781371 83.6843611,32.5159597 C83.7392991,32.5543468 83.8038655,32.5859597 83.8780602,32.6130565 C83.9528212,32.6390242 84.0321133,32.6666855 84.1159363,32.6949113 C84.2173168,32.7253952 84.3198301,32.7603952 84.4234761,32.7993468 C84.5276885,32.8388629 84.6217062,32.8902339 84.7060956,32.9551532 C84.7899186,33.0195081 84.8590159,33.0996694 84.9122549,33.1962016 C84.9654938,33.2927339 84.9921133,33.4152339 84.9921133,33.5637016 C84.9921133,33.7178145 84.9632283,33.8510403 84.9060248,33.9645081 C84.8482549,34.0779758 84.7717947,34.1716855 84.6766442,34.2456371 C84.5809274,34.3201532 84.470485,34.3754758 84.3458832,34.4116048 C84.220715,34.4482984 84.0921487,34.4663629 83.9601841,34.4663629 C83.7721487,34.4663629 83.5903434,34.4296694 83.4147681,34.3568468 C83.2397593,34.2845887 83.0942018,34.1767661 82.9792283,34.0339435 L83.3031929,33.7607177 C83.373423,33.8645887 83.4674407,33.9487016 83.5858124,34.0130565 C83.7036177,34.0774113 83.8310513,34.1090242 83.969246,34.1090242 C84.0389097,34.1090242 84.1091398,34.0994274 84.1793699,34.0802339 C84.2496,34.0604758 84.3136,34.0294274 84.3713699,33.9876532 C84.4285735,33.9453145 84.4755823,33.893379 84.5123965,33.8301532 C84.5486442,33.7674919 84.5667681,33.6912823 84.5667681,33.6015242 C84.5667681,33.5117661 84.5480779,33.43725 84.510131,33.3768468 C84.4721841,33.3164435 84.4206442,33.2656371 84.3566442,33.2238629 C84.2915115,33.1815242 84.2167504,33.1459597 84.1312283,33.1166048 C84.0451398,33.08725 83.9545204,33.0573306 83.8593699,33.0262823 C83.7636531,32.9980565 83.6696354,32.9641855 83.5773168,32.9235403 C83.4844319,32.8828952 83.4017416,32.8309597 83.3286796,32.7682984 C83.2556177,32.7050726 83.196715,32.6271694 83.1519717,32.5351532 C83.1066619,32.4425726 83.0845735,32.3279758 83.0845735,32.1907984 C83.0845735,32.0423306 83.1145912,31.9153145 83.1751929,31.808621 C83.2352283,31.7024919 83.313954,31.6144274 83.4108035,31.5444274 C83.5076531,31.4744274 83.6175292,31.423621 83.7392991,31.3914435 C83.8616354,31.3587016 83.9839717,31.3428952 84.1080071,31.3428952 C84.2818832,31.3428952 84.4444319,31.373379 84.5967858,31.4354758 C84.7480071,31.4970081 84.8703434,31.5794274 84.9632283,31.6827339 L84.6681487,31.968379 Z" id="Fill-22" fill="#412219" mask="url(#mask-2)"></path>
                        <path d="M92.5611044,33.9287742 C92.4432991,34.0885323 92.2898124,34.2178065 92.101777,34.3171613 C91.9137416,34.4165161 91.6877593,34.4661935 91.4238301,34.4661935 C91.1961487,34.4661935 90.9865912,34.4278065 90.7940248,34.3510323 C90.6020248,34.2736935 90.4360779,34.165871 90.2973168,34.0275645 C90.1579894,33.8892581 90.049246,33.7238548 89.9705204,33.5319194 C89.8923611,33.3405484 89.852715,33.1299839 89.852715,32.9002258 C89.852715,32.6682097 89.8929274,32.4559516 89.9727858,32.2645806 C90.0526442,32.0726452 90.1636531,31.9089355 90.3058124,31.7734516 C90.4474053,31.6374032 90.6150513,31.5318387 90.8087504,31.4561935 C91.0030159,31.3805484 91.2131398,31.3427258 91.4408212,31.3427258 C91.5416354,31.3427258 91.6441487,31.3528871 91.7483611,31.3720806 C91.8520071,31.3918387 91.9516885,31.4211935 92.0474053,31.4601452 C92.1425558,31.4996613 92.229777,31.5476452 92.3085027,31.6052258 C92.3866619,31.6628065 92.4546265,31.7294194 92.5106973,31.8045 L92.1822018,32.0568387 C92.1091398,31.9557903 92.0060602,31.8722419 91.8723965,31.8067581 C91.7387327,31.7412742 91.5948743,31.7079677 91.4408212,31.7079677 C91.2663788,31.7079677 91.1100602,31.7395806 90.9707327,31.8022419 C90.8319717,31.8654677 90.7136,31.9518387 90.6150513,32.0607903 C90.517069,32.1697419 90.4411752,32.2967581 90.3879363,32.4407097 C90.334131,32.5846613 90.3075115,32.7382097 90.3075115,32.9002258 C90.3075115,33.0684516 90.3335646,33.2248226 90.3856708,33.3704677 C90.4372106,33.5161129 90.5119717,33.6425645 90.6088212,33.7503871 C90.7056708,33.8582097 90.8240425,33.9428871 90.9628035,34.0044194 C91.1015646,34.0659516 91.2567504,34.097 91.4283611,34.097 C91.5965735,34.097 91.7494938,34.063129 91.8871221,33.9959516 C92.0247504,33.9287742 92.1385912,33.8311129 92.2286442,33.7024032 L92.5611044,33.9287742 Z" id="Fill-23" fill="#412219" mask="url(#mask-2)"></path>
                        <polygon id="Fill-24" fill="#412219" mask="url(#mask-2)" points="97.4090195 31.4184839 97.825869 31.4184839 97.825869 32.6609839 99.3335504 32.6609839 99.3335504 31.4184839 99.754931 31.4184839 99.754931 34.3906613 99.3335504 34.3906613 99.3335504 33.0301774 97.825869 33.0301774 97.825869 34.3906613 97.4090195 34.3906613"></polygon>
                        <path d="M107.458492,32.9003387 C107.458492,32.7377581 107.431873,32.5847742 107.378634,32.4408226 C107.325395,32.296871 107.249501,32.1698548 107.150952,32.0609032 C107.05297,31.9513871 106.934032,31.8655806 106.795271,31.8023548 C106.655943,31.7396935 106.499625,31.7080806 106.325749,31.7080806 C106.154138,31.7080806 105.998952,31.7396935 105.860191,31.8023548 C105.72143,31.8655806 105.603058,31.9513871 105.506209,32.0609032 C105.409359,32.1698548 105.334598,32.296871 105.280793,32.4408226 C105.227554,32.5847742 105.200935,32.7377581 105.200935,32.9003387 C105.200935,33.0651774 105.227554,33.2209839 105.280793,33.366629 C105.334598,33.5117097 105.409926,33.6387258 105.508474,33.7465484 C105.606457,33.8538065 105.724262,33.9384839 105.862457,34.0000161 C105.999519,34.0621129 106.154138,34.0925968 106.325749,34.0925968 C106.496793,34.0925968 106.652545,34.0621129 106.793005,34.0000161 C106.933465,33.9384839 107.05297,33.8538065 107.150952,33.7465484 C107.249501,33.6387258 107.325395,33.5117097 107.378634,33.366629 C107.431873,33.2209839 107.458492,33.0651774 107.458492,32.9003387 M107.909324,32.9003387 C107.909324,33.1300968 107.869112,33.3406613 107.789253,33.5320323 C107.708828,33.7239677 107.598952,33.8888065 107.458492,34.0276774 C107.318032,34.1659839 107.150952,34.2738065 106.957253,34.3505806 C106.763554,34.4279194 106.552864,34.4663065 106.325749,34.4663065 C106.098067,34.4663065 105.887943,34.4279194 105.695943,34.3505806 C105.503377,34.2738065 105.336864,34.1659839 105.196404,34.0276774 C105.05651,33.8888065 104.946634,33.7239677 104.867908,33.5320323 C104.789749,33.3406613 104.750103,33.1300968 104.750103,32.9003387 C104.750103,32.6677581 104.789749,32.4560645 104.867908,32.2646935 C104.946634,32.0727581 105.05651,31.9090484 105.196404,31.773 C105.336864,31.6375161 105.503377,31.5319516 105.695943,31.4563065 C105.887943,31.3806613 106.098067,31.3428387 106.325749,31.3428387 C106.552864,31.3428387 106.763554,31.3806613 106.957253,31.4563065 C107.150952,31.5319516 107.318032,31.6375161 107.458492,31.773 C107.598952,31.9090484 107.708828,32.0727581 107.789253,32.2646935 C107.869112,32.4560645 107.909324,32.6677581 107.909324,32.9003387" id="Fill-25" fill="#412219" mask="url(#mask-2)"></path>
                        <path d="M115.457133,32.9003387 C115.457133,32.7377581 115.430513,32.5847742 115.376708,32.4408226 C115.323469,32.296871 115.247575,32.1698548 115.149593,32.0609032 C115.051044,31.9513871 114.932673,31.8655806 114.793912,31.8023548 C114.654584,31.7396935 114.498265,31.7080806 114.323823,31.7080806 C114.152779,31.7080806 113.997593,31.7396935 113.858832,31.8023548 C113.719504,31.8655806 113.601699,31.9513871 113.50485,32.0609032 C113.408,32.1698548 113.332673,32.296871 113.279434,32.4408226 C113.226195,32.5847742 113.199575,32.7377581 113.199575,32.9003387 C113.199575,33.0651774 113.226195,33.2209839 113.279434,33.366629 C113.332673,33.5117097 113.408566,33.6387258 113.507115,33.7465484 C113.605097,33.8538065 113.722903,33.9384839 113.860531,34.0000161 C113.998159,34.0621129 114.152779,34.0925968 114.323823,34.0925968 C114.495434,34.0925968 114.651186,34.0621129 114.791646,34.0000161 C114.932106,33.9384839 115.051044,33.8538065 115.149593,33.7465484 C115.247575,33.6387258 115.323469,33.5117097 115.376708,33.366629 C115.430513,33.2209839 115.457133,33.0651774 115.457133,32.9003387 M115.907398,32.9003387 C115.907398,33.1300968 115.867752,33.3406613 115.787327,33.5320323 C115.707469,33.7239677 115.597593,33.8888065 115.457133,34.0276774 C115.316106,34.1659839 115.149593,34.2738065 114.955894,34.3505806 C114.761628,34.4279194 114.551504,34.4663065 114.323823,34.4663065 C114.096708,34.4663065 113.886584,34.4279194 113.694584,34.3505806 C113.502018,34.2738065 113.335504,34.1659839 113.195044,34.0276774 C113.054584,33.8888065 112.945274,33.7239677 112.866549,33.5320323 C112.788389,33.3406613 112.748743,33.1300968 112.748743,32.9003387 C112.748743,32.6677581 112.788389,32.4560645 112.866549,32.2646935 C112.945274,32.0727581 113.054584,31.9090484 113.195044,31.773 C113.335504,31.6375161 113.502018,31.5319516 113.694584,31.4563065 C113.886584,31.3806613 114.096708,31.3428387 114.323823,31.3428387 C114.551504,31.3428387 114.761628,31.3806613 114.955894,31.4563065 C115.149593,31.5319516 115.316106,31.6375161 115.457133,31.773 C115.597593,31.9090484 115.707469,32.0727581 115.787327,32.2646935 C115.867752,32.4560645 115.907398,32.6677581 115.907398,32.9003387" id="Fill-26" fill="#412219" mask="url(#mask-2)"></path>
                        <polygon id="Fill-27" fill="#412219" mask="url(#mask-2)" points="121.315795 34.0210726 122.646768 34.0210726 122.646768 34.3908306 120.898945 34.3908306 120.898945 31.4186532 121.315795 31.4186532"></polygon>
                        <path d="M78.2934088,32.8032984 C78.2934088,33.0725726 78.074223,33.2910403 77.8040637,33.2910403 C77.5339044,33.2910403 77.315285,33.0725726 77.315285,32.8032984 C77.315285,32.5340242 77.5339044,32.3155565 77.8040637,32.3155565 C78.074223,32.3155565 78.2934088,32.5340242 78.2934088,32.8032984" id="Fill-28" fill="#412219" mask="url(#mask-2)"></path>
                        <path d="M12.9408,27.4768065 L12.7810832,27.6066452 L12.7810832,33.8372097 L17.5759858,33.8372097 C17.4106053,33.1400323 16.9116319,31.1839839 16.2869239,30.104629 C15.7188531,29.1235 14.5623221,27.4768065 13.2001982,27.4768065 L12.9481628,27.4768065 L12.9408,27.4768065 Z" id="Fill-29" fill="#4A1C00" mask="url(#mask-2)"></path>
                        <polygon id="Fill-30" fill="#4A1C00" mask="url(#mask-2)" points="7.11561062 32.2073387 5.10895575 33.8370968 8.71730973 33.8370968 8.71730973 32.2073387"></polygon>
                        <path d="M18.046754,34.0028952 C18.0229664,33.89225 17.4503646,31.2740242 16.6523469,29.8949113 C16.0859752,28.9160403 15.2573735,27.7960403 14.2407363,27.3071694 C14.025515,27.4121694 13.7870726,27.4765242 13.5322053,27.4765242 L13.1997451,27.4765242 C14.5624354,27.4765242 15.7189664,29.1232177 16.2870372,30.1049113 C16.9117451,31.1842661 17.4107186,33.1403145 17.5755327,33.8369274 L12.7811965,33.8369274 L12.7811965,33.9944274 L8.71747965,33.9944274 L8.71747965,33.8369274 L5.10912566,33.8369274 L4.85029381,34.0474919 L0.279674336,34.0474919 C0.279674336,34.0474919 0.922506195,31.5585403 1.10827611,30.811121 C1.29347965,30.0631371 1.74601062,28.4576532 2.78870088,27.9332177 C3.60087788,27.5239435 3.65298407,27.3585403 4.0024354,27.2975726 C3.93956814,27.2653952 3.87556814,27.2354758 3.8183646,27.1965242 C3.00335575,27.4635403 1.51663009,28.2126532 1.03521416,30.2138629 C0.400311504,32.8574919 0.0797451327,33.978621 0.0769132743,33.9893468 L-0.000113274336,34.2574919 L18.1022584,34.2574919 L18.046754,34.0028952 Z" id="Fill-31" fill="#412219" mask="url(#mask-2)"></path>
                        <path d="M11.4734442,22.3255968 L11.4734442,21.1028548 C11.3584708,21.1700323 11.2434973,21.2338226 11.1285239,21.2947903 L10.3339044,22.3255968 L11.4734442,22.3255968 Z" id="Fill-32" fill="#F9AE8E" mask="url(#mask-2)"></path>
                        <path d="M5.76107611,20.7805726 C5.68631504,20.7354113 5.61608496,20.6930726 5.54981947,20.6518629 L5.54981947,22.3256532 L5.76107611,22.3256532 L5.76107611,20.7805726 Z" id="Fill-33" fill="#412219" mask="url(#mask-2)"></path>
                        <path d="M11.4734442,21.1030806 L11.4734442,22.3258226 L11.8953912,22.3258226 L11.8953912,20.8411452 C11.7560637,20.9325968 11.6150372,21.0200968 11.4734442,21.1030806" id="Fill-34" fill="#412219" mask="url(#mask-2)"></path>
                        <path d="M5.55004602,22.7462177 L4.72880708,22.7462177 C4.06728496,22.7462177 3.52923186,23.2825081 3.52923186,23.9424274 L3.52923186,25.8606532 C3.52923186,26.5200081 4.06728496,27.0562984 4.72880708,27.0562984 L5.55004602,27.0562984 L5.55004602,26.2524274 L5.55004602,22.7462177 Z" id="Fill-35" fill="#F3AF42" mask="url(#mask-2)"></path>
                        <path d="M13.9911363,23.9901855 C13.9911363,23.81575 14.1327292,23.674621 14.3077381,23.674621 C14.4821805,23.674621 14.6237735,23.81575 14.6237735,23.9901855 L14.6237735,26.0422016 C14.6237735,26.2160726 14.4821805,26.3572016 14.3077381,26.3572016 C14.1327292,26.3572016 13.9911363,26.2160726 13.9911363,26.0422016 L13.9911363,23.9901855 Z M13.5318088,27.0560726 C14.1938973,27.0560726 14.7325168,26.5197823 14.7325168,25.8604274 L14.7325168,23.9422016 C14.7325168,23.2828468 14.1938973,22.7459919 13.5318088,22.7459919 L12.948446,22.7459919 L12.948446,27.0560726 L13.5318088,27.0560726 Z" id="Fill-36" fill="#F3AF42" mask="url(#mask-2)"></path>
                        <polygon id="Fill-37" fill="#F3AF42" mask="url(#mask-2)" points="9.05339469 27.056129 9.9612885 27.056129 9.9612885 22.7460484 8.53743009 22.7460484 8.53743009 27.056129 8.71753628 27.056129"></polygon>
                        <path d="M4.39294867,27.2664677 C4.5424708,27.2630806 4.96668319,27.2613871 5.55004602,27.2596935 L5.55004602,27.0559032 L4.72880708,27.0559032 C4.06728496,27.0559032 3.52923186,26.5196129 3.52923186,25.8602581 L3.52923186,23.9420323 C3.52923186,23.2826774 4.06728496,22.7463871 4.72880708,22.7463871 L5.55004602,22.7463871 L5.55004602,22.3258226 L4.72880708,22.3258226 C3.83507257,22.3258226 3.10728496,23.0506613 3.10728496,23.9420323 L3.10728496,25.8602581 C3.10728496,26.4151774 3.38933805,26.9051774 3.81808142,27.1964677 C3.87585133,27.2354194 3.93928496,27.2659032 4.00215221,27.2975161 C4.10070088,27.2800161 4.22190442,27.2704194 4.39294867,27.2664677" id="Fill-38" fill="#412219" mask="url(#mask-2)"></path>
                        <path d="M12.9482761,22.7462177 L13.5322053,22.7462177 C14.1937274,22.7462177 14.7323469,23.2825081 14.7323469,23.9424274 L14.7323469,25.8606532 C14.7323469,26.5200081 14.1937274,27.0562984 13.5322053,27.0562984 L12.9482761,27.0562984 L12.9482761,27.2657339 C13.1074265,27.2662984 13.1997451,27.2662984 13.1997451,27.2662984 L12.9482761,27.4706532 L12.9482761,27.4768629 L13.1997451,27.4768629 L13.5322053,27.4768629 C13.7870726,27.4768629 14.025515,27.4125081 14.2407363,27.3075081 C14.7793558,27.043879 15.1542938,26.4974274 15.1542938,25.8606532 L15.1542938,23.9424274 C15.1542938,23.0510565 14.4265062,22.3256532 13.5322053,22.3256532 L12.9482761,22.3256532 L12.9482761,22.7462177 Z" id="Fill-39" fill="#412219" mask="url(#mask-2)"></path>
                        <polygon id="Fill-40" fill="#412219" mask="url(#mask-2)" points="8.53692035 22.7463306 9.96077876 22.7463306 9.96077876 22.5357661 8.53692035 22.5357661"></polygon>
                        <path d="M9.13936991,33.5739758 L11.8817416,33.5739758 C11.7067327,33.5739758 11.5651398,33.4328468 11.5651398,33.2584113 L11.5651398,32.2778468 C11.5651398,32.1039758 11.7067327,31.9628468 11.8817416,31.9628468 C12.0561841,31.9628468 12.197777,32.1039758 12.197777,32.2778468 L12.197777,33.2584113 C12.197777,33.4328468 12.0561841,33.5739758 11.8817416,33.5739758 L12.3591929,33.5739758 L12.3591929,31.9284113 L9.13936991,31.9284113 L9.13936991,33.5739758 Z" id="Fill-41" fill="#F3AF42" mask="url(#mask-2)"></path>
                        <polygon id="Fill-42" fill="#F3AF42" mask="url(#mask-2)" points="12.3592496 29.6934919 12.3592496 27.9491371 10.2115681 29.6934919"></polygon>
                        <polygon id="Fill-43" fill="#412219" mask="url(#mask-2)" points="12.3592496 27.94925 12.3592496 29.6936048 12.6401699 29.6936048 12.6401699 31.9285242 12.3592496 31.9285242 12.3592496 33.5740887 11.8817982 33.5740887 9.13942655 33.5740887 9.13942655 31.9285242 9.05333805 31.9285242 9.05333805 32.2073952 8.71747965 32.2073952 8.71747965 33.8371532 8.71747965 33.9946532 12.7811965 33.9946532 12.7811965 33.8371532 12.7811965 27.6065887"></polygon>
                        <path d="M9.05339469,27.2598629 C9.35980177,27.2598629 9.66394336,27.2604274 9.9612885,27.2609919 L9.9612885,27.0560726 L9.05339469,27.0560726 L9.05339469,27.2598629 Z" id="Fill-44" fill="#412219" mask="url(#mask-2)"></path>
                        <polygon id="Fill-45" fill="#F3AF42" mask="url(#mask-2)" points="8.63133451 30.9763548 7.63338761 31.787 8.63133451 31.787"></polygon>
                        <polygon id="Fill-46" fill="#412219" mask="url(#mask-2)" points="8.85782655 31.9284113 8.85782655 30.7926048 8.63127788 30.9760726 8.63127788 31.7872823 7.63333097 31.7872823 7.11566726 32.2072823 8.71736637 32.2072823 9.05322478 32.2072823 9.05322478 31.9284113"></polygon>
                        <path d="M9.05339469,27.2598629 L9.05339469,27.0560726 L8.71753628,27.0560726 L8.53743009,27.0560726 L8.53743009,27.2598629 L9.05339469,27.2598629" id="Fill-47" fill="#412219" mask="url(#mask-2)"></path>
                        <polygon id="Fill-48" fill="#850F18" mask="url(#mask-2)" points="10.3827257 27.0564113 12.5264425 27.0564113 12.5264425 22.7463306 10.3827257 22.7463306"></polygon>
                        <polygon id="Fill-49" fill="#412219" mask="url(#mask-2)" points="12.9482761 27.4768065 12.9482761 27.4705968 12.9409133 27.4768065"></polygon>
                        <path d="M10.3827257,27.0564113 L12.5264425,27.0564113 L12.5264425,22.7463306 L10.3827257,22.7463306 L10.3827257,27.0564113 Z M11.4735575,22.3257661 L10.3340177,22.3257661 L10.171469,22.5357661 L9.96077876,22.5357661 L9.96077876,22.7463306 L9.96077876,27.0564113 L9.96077876,27.2607661 C11.2872212,27.2624597 12.455646,27.2652823 12.9483894,27.2658468 L12.9483894,27.0564113 L12.9483894,22.7463306 L12.9483894,22.3257661 L11.8949381,22.3257661 L11.4735575,22.3257661 Z" id="Fill-50" fill="#412219" mask="url(#mask-2)"></path>
                        <polygon id="Fill-51" fill="#850F18" mask="url(#mask-2)" points="5.97176637 27.056129 6.52907611 27.056129 8.11548319 27.056129 8.11548319 22.7460484 5.97176637 22.7460484 5.97176637 25.8322581"></polygon>
                        <path d="M8.11559646,22.7462177 L8.11559646,27.0562984 L6.52918938,27.0562984 L5.97187965,27.0562984 L5.97187965,25.8318629 L5.97187965,22.7462177 L8.11559646,22.7462177 Z M5.54993274,22.7462177 L5.54993274,26.2524274 L5.54993274,27.0562984 L5.54993274,27.2600887 C6.34172035,27.2583952 7.42915398,27.2583952 8.53754336,27.2595242 L8.53754336,27.0562984 L8.53754336,22.7462177 L8.53754336,22.5356532 L8.3268531,22.5356532 L5.76118938,22.5356532 L5.76118938,22.3256532 L5.54993274,22.3256532 L5.54993274,22.7462177 Z" id="Fill-52" fill="#412219" mask="url(#mask-2)"></path>
                        <path d="M11.8816283,30.1325726 C12.0566372,30.1325726 12.1982301,30.2737016 12.1982301,30.4481371 L12.1982301,31.178621 C12.1982301,31.3524919 12.0566372,31.493621 11.8816283,31.493621 C11.7066195,31.493621 11.5650265,31.3524919 11.5650265,31.178621 L11.5650265,30.4481371 C11.5650265,30.2737016 11.7066195,30.1325726 11.8816283,30.1325726 L11.8816283,30.1325726 Z M12.2180531,31.5077339 L12.2180531,30.1139435 L9.69373451,30.1139435 L9.27971681,30.4498306 L9.27971681,31.5077339 L12.2180531,31.5077339 Z" id="Fill-53" fill="#850F18" mask="url(#mask-2)"></path>
                        <polygon id="Fill-54" fill="#412219" mask="url(#mask-2)" points="9.6935646 30.1138306 12.2184496 30.1138306 12.2184496 31.507621 9.28011327 31.507621 9.28011327 30.4497177 8.8576 30.792379 8.8576 31.9281855 9.0535646 31.9281855 9.13908673 31.9281855 12.3594761 31.9281855 12.6403965 31.9281855 12.6403965 29.6932661 12.3594761 29.6932661 10.2112283 29.6932661"></polygon>
                        <path d="M8.53731681,22.3255968 L9.96117522,22.3255968 L10.3338478,22.3255968 L11.1284673,21.2947903 C10.2981664,21.7351129 9.46503363,22.0145484 8.84259115,22.0145484 C8.03834336,22.0145484 6.82234336,21.3997903 5.9716531,20.9052742 L5.9716531,22.3255968 L8.53731681,22.3255968 Z" id="Fill-55" fill="#F9AE8E" mask="url(#mask-2)"></path>
                        <path d="M8.53731681,22.3255968 L9.96117522,22.3255968 L10.3338478,22.3255968 L11.1284673,21.2947903 C10.2981664,21.7351129 9.46503363,22.0145484 8.84259115,22.0145484 C8.03834336,22.0145484 6.82234336,21.3997903 5.9716531,20.9052742 L5.9716531,22.3255968 L8.53731681,22.3255968 Z" id="Fill-56" fill="#251312" mask="url(#mask-2)"></path>
                        <path d="M10.1717522,22.535879 L10.3337345,22.3253145 L9.96106195,22.3253145 L8.53720354,22.3253145 L5.97153982,22.3253145 L5.97153982,20.9049919 C5.89847788,20.8620887 5.82881416,20.820879 5.76084956,20.7807984 L5.76084956,22.3253145 L5.76084956,22.535879 L8.32651327,22.535879 L8.53720354,22.535879 L9.96106195,22.535879 L10.1717522,22.535879 Z" id="Fill-57" fill="#412219" mask="url(#mask-2)"></path>
                        <path d="M10.1717522,22.535879 L10.3337345,22.3253145 L9.96106195,22.3253145 L8.53720354,22.3253145 L5.97153982,22.3253145 L5.97153982,20.9049919 C5.89847788,20.8620887 5.82881416,20.820879 5.76084956,20.7807984 L5.76084956,22.3253145 L5.76084956,22.535879 L8.32651327,22.535879 L8.53720354,22.535879 L9.96106195,22.535879 L10.1717522,22.535879 Z" id="Fill-58" fill="#251312" mask="url(#mask-2)"></path>
                        <path d="M13.5832354,18.450871 C13.3566867,18.8646613 12.7631292,19.5093387 12.1718372,19.9824032 C11.5403327,20.4893387 9.64808496,21.3180484 9.56766018,21.3530484 C9.52631504,21.3711129 9.4832708,21.3795806 9.44079292,21.3795806 C9.31958938,21.3795806 9.20348319,21.3090161 9.15137699,21.1904677 C9.08058053,21.0307097 9.15364248,20.8449839 9.31392566,20.7749839 C9.83951858,20.5457903 11.3052885,19.8678065 11.7759434,19.4912742 C12.3525097,19.028371 12.8650761,18.4452258 13.0276248,18.1488548 C13.168085,17.893129 13.3074124,17.3099839 13.2026336,16.633129 C12.9777841,16.6952258 12.6645805,16.7573226 12.3004035,16.7618387 L12.2805805,16.7618387 C11.5471292,16.7618387 10.6403681,16.2910323 10.6018549,16.2707097 C10.446669,16.1899839 10.3877664,15.9991774 10.4687575,15.8450645 C10.5508814,15.6909516 10.7417487,15.6322419 10.8958018,15.7124032 C11.1206513,15.8298226 11.8025628,16.1312742 12.2800142,16.1312742 L12.2930407,16.1312742 C12.8752708,16.1239355 13.3000496,15.9348226 13.3040142,15.933129 C13.3884035,15.8936129 13.4863858,15.8941774 13.5713416,15.9336935 C13.655731,15.9726452 13.7180319,16.0471613 13.7423858,16.1369194 C13.9949876,17.0666774 13.8364035,17.9879677 13.5832354,18.450871 M4.32872212,16.4101452 C4.22281062,16.3610323 4.17693451,16.2368387 4.22620885,16.1312742 C4.27435044,16.0257097 4.40008496,15.9805484 4.50543009,16.0279677 C4.50939469,16.0302258 4.95173097,16.2289355 5.56001416,16.2362742 L5.57473982,16.2362742 C6.17849204,16.2362742 6.9991646,15.8100645 7.00709381,15.8055484 C7.10960708,15.7519194 7.23817345,15.790871 7.29197876,15.8936129 C7.34635044,15.9963548 7.30670442,16.1239355 7.20305841,16.1775645 C7.16567788,16.1973226 6.28100531,16.6568387 5.57360708,16.6568387 L5.55491681,16.6568387 C4.85204956,16.648371 4.34967788,16.4197419 4.32872212,16.4101452 M8.74302301,18.0895806 C9.8712354,18.0895806 10.7292885,17.3122419 10.7383504,17.3043387 C10.8238726,17.225871 10.9575363,17.2309516 11.0362619,17.3161935 C11.115554,17.4014355 11.1098903,17.5346613 11.0243681,17.613129 C10.9847221,17.6498226 10.0343504,18.5101452 8.74302301,18.5101452 C7.43583717,18.5101452 6.67406726,17.6323226 6.64235044,17.5945 C6.56702301,17.5064355 6.57778407,17.3743387 6.66613805,17.2986935 C6.75449204,17.2247419 6.88758938,17.2343387 6.96348319,17.3218387 C6.97027965,17.3303065 7.63689912,18.0895806 8.74302301,18.0895806 M8.19081062,15.0095806 C8.26670442,14.9209516 8.40036814,14.9113548 8.48815575,14.9864355 C8.57650973,15.0615161 8.5872708,15.1936129 8.51194336,15.2816774 C8.46096991,15.3437742 8.41905841,15.4397419 8.43208496,15.4690968 C8.43944779,15.4882903 8.51760708,15.5475645 8.76001416,15.5673226 C8.94578407,15.582 9.08227965,15.5560323 9.12419115,15.4973226 C9.17289912,15.4284516 9.13098761,15.2760323 9.1111646,15.230871 C9.06415575,15.1247419 9.11229735,15.0011129 9.21877522,14.9536935 C9.32355398,14.9074032 9.4492885,14.9542581 9.49686372,15.0609516 C9.51498761,15.1010323 9.66620885,15.4628871 9.46854513,15.740629 C9.34960708,15.9077258 9.14458053,15.9918387 8.85856283,15.9918387 C8.81608496,15.9918387 8.77190796,15.9901452 8.72603186,15.9861935 C8.35789027,15.9568387 8.12737699,15.8365968 8.04185487,15.6294194 C7.92065133,15.337 8.16305841,15.0417581 8.19081062,15.0095806 M12.2970053,15.9867581 C10.8952354,15.9867581 9.70472212,15.0840968 9.27088142,13.8325645 L8.50401416,13.8325645 C8.07017345,15.0840968 6.87966018,15.9867581 5.47789027,15.9867581 C4.80843894,15.9867581 4.1871292,15.7807097 3.67229735,15.4295806 C3.63831504,15.7152258 3.60376637,15.9811129 3.56808496,16.2165161 L3.5612885,16.2848226 L3.5612885,16.2853871 C3.27583717,18.4147419 5.22415575,19.9400645 5.24397876,19.9553065 C5.25870442,19.9654677 7.65672212,21.5935323 8.84213805,21.5935323 C10.0032,21.5935323 12.0727221,20.4582903 13.1845097,19.2112742 C13.8415009,18.4745806 13.9593062,17.5476452 13.9553416,16.8188548 L13.8550938,15.5814355 C13.3935009,15.8388548 12.8622442,15.9867581 12.2970053,15.9867581" id="Fill-59" fill="#F9AE8E" mask="url(#mask-2)"></path>
                        <path d="M8.68168496,12.7938548 C8.68168496,13.0055484 8.65959646,13.2121613 8.62051681,13.412 L9.15460531,13.412 C9.11495929,13.2121613 9.09343717,13.0055484 9.09343717,12.7938548 C9.09343717,11.6484516 9.7028531,10.6453065 10.6141451,10.0813548 C9.6728354,9.18829032 8.98639292,8.23933871 8.58370265,7.61103226 C8.75701239,8.81570968 9.50632212,9.66022581 9.51538407,9.66982258 L9.83141947,10.0209516 L9.35793274,10.0209516 C7.23517168,10.0209516 6.09789735,8.51651613 5.59722478,7.58506452 C5.44147257,8.22522581 5.10787965,8.96925806 4.71934867,9.69466129 C4.96345487,9.6353871 5.21605664,9.6003871 5.47772035,9.6003871 C7.24423363,9.6003871 8.68168496,11.033129 8.68168496,12.7938548" id="Fill-60" fill="#F9AE8E" mask="url(#mask-2)"></path>
                        <path d="M5.97176637,20.9051613 C6.82189027,21.3996774 8.03845664,22.0144355 8.84213805,22.0144355 C9.4651469,22.0144355 10.2982796,21.735 11.1285805,21.2946774 C11.243554,21.2337097 11.3585274,21.1699194 11.4735009,21.1033065 C11.6150938,21.0197581 11.7561204,20.9322581 11.8948814,20.841371 C12.4992,20.4450806 13.0638726,19.9787903 13.4999788,19.4904839 C14.2017133,18.7035484 14.3636956,17.7545968 14.3778549,16.9840323 C14.3195186,16.9992742 14.266846,17.0235484 14.2062442,17.0348387 L13.9762973,17.0766129 L13.9553416,16.8191935 C13.9593062,17.5474194 13.8415009,18.4743548 13.1845097,19.2116129 C12.0727221,20.4580645 10.0032,21.593871 8.84213805,21.593871 C7.65672212,21.593871 5.25870442,19.9652419 5.24397876,19.9550806 C5.22415575,19.9404032 3.27583717,18.4145161 3.5612885,16.2851613 L3.51654513,16.3354032 C3.49615575,16.3585484 3.34889912,16.5171774 3.10932389,16.6018548 C3.03626195,18.7707258 4.90302301,20.2243548 4.99590796,20.2954839 C5.02479292,20.3152419 5.23661593,20.4580645 5.54981947,20.6522581 C5.61608496,20.6929032 5.68631504,20.7358065 5.76107611,20.7804032 C5.82904071,20.8210484 5.89813805,20.8622581 5.97176637,20.9051613" id="Fill-61" fill="#412219" mask="url(#mask-2)"></path>
                        <path d="M3.64715044,15.4102742 L3.56785841,16.2169677 C3.60353982,15.981 3.63865487,15.7156774 3.67263717,15.4294677 C3.66357522,15.4232581 3.65564602,15.4164839 3.64715044,15.4102742" id="Fill-62" fill="#412219" mask="url(#mask-2)"></path>
                        <path d="M14.2566513,15.3143065 L14.3580319,16.5641452 C15.5491115,16.1797097 15.8810053,14.6442258 15.9444389,13.3836613 C15.9648283,12.9783387 15.8827044,12.6842258 15.7076956,12.5335 C15.6352,12.4714032 15.5536425,12.4386613 15.4766159,12.4205968 C15.4913416,12.5430968 15.5004035,12.6672903 15.5004035,12.7937419 C15.5004035,13.8183387 15.0116248,14.7294677 14.2566513,15.3143065" id="Fill-63" fill="#F9AE8E" mask="url(#mask-2)"></path>
                        <path d="M15.4441628,12.2075484 C15.4571894,12.2781129 15.4685168,12.3486774 15.4770124,12.420371 C15.5534726,12.4384355 15.6350301,12.4717419 15.7075257,12.5338387 C15.8825345,12.6845645 15.9646584,12.9781129 15.944269,13.3834355 C15.8808354,14.644 15.549508,16.1800484 14.3584283,16.5639194 L14.2564814,15.3140806 C14.1296142,15.412871 13.9959504,15.502629 13.8549239,15.5816613 L13.9557381,16.8190806 L13.9761274,17.0765 L14.2060743,17.0347258 C14.2666761,17.0234355 14.319915,16.9991613 14.3782513,16.9839194 C15.5732956,16.6655323 16.2631363,15.4410968 16.3650832,13.4043226 C16.3928354,12.8573065 16.264269,12.4570645 15.9833487,12.2154516 C15.8587469,12.1087581 15.7222513,12.0494839 15.5953841,12.0173065 C15.5376142,12.0912581 15.485508,12.157871 15.4441628,12.2075484" id="Fill-64" fill="#412219" mask="url(#mask-2)"></path>
                        <path d="M2.27987257,12.9093548 C2.06181947,12.7704839 1.86698761,12.6016935 1.69537699,12.4080645 C1.53226195,12.6406452 1.50054513,12.9093548 1.46996106,13.1735484 L1.45750088,13.2796774 C1.39010265,13.8165323 1.81884602,15.5495968 2.37275752,16.0401613 C2.52964248,16.1790323 2.6791646,16.2428226 2.83435044,16.2354839 C2.97934159,16.2258871 3.09544779,16.1479839 3.15548319,16.098871 L3.25459823,15.0878226 C2.67746549,14.5317742 2.31102301,13.7629032 2.27987257,12.9093548" id="Fill-65" fill="#F9AE8E" mask="url(#mask-2)"></path>
                        <path d="M3.51631858,16.3355726 L3.56162832,16.2853306 L3.56162832,16.2847661 L3.56785841,16.2170242 L3.64715044,15.4103306 C3.50725664,15.3132339 3.37642478,15.2054113 3.25465487,15.0879919 L3.15553982,16.0990403 C3.09550442,16.1475887 2.97939823,16.2260565 2.83384071,16.2350887 C2.67865487,16.2424274 2.52969912,16.1792016 2.37281416,16.0403306 C1.81890265,15.5497661 1.39015929,13.8167016 1.45755752,13.2798468 L1.4700177,13.1737177 C1.50060177,12.9095242 1.53231858,12.6408145 1.69543363,12.4076694 C1.60028319,12.3004113 1.51079646,12.1869435 1.42867257,12.0655726 C1.13302655,12.4104919 1.08658407,12.8129919 1.05090265,13.1257339 L1.03900885,13.2279113 C0.959716814,13.8607339 1.40715044,15.7467823 2.09246018,16.3542016 C2.31900885,16.5551694 2.55858407,16.6567823 2.80438938,16.6567823 C2.82307965,16.6567823 2.84176991,16.6562177 2.86046018,16.6550887 C2.95221239,16.6494435 3.03433628,16.6285565 3.10909735,16.6020242 C3.34867257,16.5167823 3.4959292,16.3587177 3.51631858,16.3355726" id="Fill-66" fill="#412219" mask="url(#mask-2)"></path>
                        <path d="M5.84042478,10.1124032 C5.90612389,10.1248226 7.44778761,10.4324839 7.92297345,11.6320806 C8.37323894,12.7684516 7.94449558,13.9353065 7.92580531,13.9844194 C7.86237168,14.1532097 7.70152212,14.2570806 7.53104425,14.2570806 C7.48120354,14.2570806 7.4319292,14.2486129 7.38265487,14.2305484 C7.16460177,14.1486935 7.05415929,13.9065161 7.13571681,13.6891774 C7.13854867,13.6812742 7.46704425,12.7707097 7.13854867,11.940871 C6.83667257,11.1787742 5.69316814,10.9405484 5.68127434,10.9382903 C5.45246018,10.8942581 5.30293805,10.6740968 5.34654867,10.4460323 C5.39015929,10.2179677 5.61500885,10.0689355 5.84042478,10.1124032 M5.4779469,15.5667581 C7.01168142,15.5667581 8.25939823,14.3225645 8.25939823,12.7938548 C8.25939823,11.2651452 7.01168142,10.0209516 5.4779469,10.0209516 C5.10357522,10.0209516 4.74732743,10.0960323 4.42109735,10.2298226 C3.70010619,11.4824839 2.90265487,12.5832903 2.69932743,12.8587742 C2.73444248,14.3575645 3.96573451,15.5667581 5.4779469,15.5667581" id="Fill-67" fill="#93C9D1" mask="url(#mask-2)"></path>
                        <path d="M5.47789027,15.986871 C6.87966018,15.986871 8.07017345,15.0842097 8.50401416,13.8326774 L8.35109381,13.8326774 C8.23442124,13.8326774 8.14040354,13.7389677 8.14040354,13.6226774 C8.14040354,13.5063871 8.23442124,13.4121129 8.35109381,13.4121129 L8.62012035,13.4121129 C8.65976637,13.2117097 8.68185487,13.0056613 8.68185487,12.7939677 C8.68185487,11.0332419 7.24440354,9.6005 5.47789027,9.6005 C5.21622655,9.6005 4.96305841,9.6355 4.71951858,9.69477419 C4.6232354,9.87485484 4.52242124,10.0538065 4.42104071,10.2299355 C4.7472708,10.0955806 5.10351858,10.0210645 5.47789027,10.0210645 C7.01162478,10.0210645 8.25990796,11.2646935 8.25990796,12.7939677 C8.25990796,14.3226774 7.01162478,15.5663065 5.47789027,15.5663065 C3.96624425,15.5663065 2.73438584,14.3571129 2.6992708,12.8583226 C2.67661593,12.889371 2.66132389,12.9102581 2.65396106,12.9192903 L2.54238584,13.0688871 L2.37983717,12.9763065 C2.3452885,12.9559839 2.31413805,12.9305806 2.28015575,12.909129 C2.31073982,13.7632419 2.6771823,14.5315484 3.25488142,15.0875968 C3.37665133,15.2050161 3.50748319,15.3134032 3.64737699,15.4105 C3.65587257,15.4167097 3.66380177,15.4234839 3.67229735,15.4296935 C4.1871292,15.7808226 4.80843894,15.986871 5.47789027,15.986871" id="Fill-68" fill="#412219" mask="url(#mask-2)"></path>
                        <path d="M9.51521416,12.7938548 C9.51521416,13.0399839 9.5503292,13.2776452 9.61093097,13.5051452 C9.63471858,13.5390161 9.65170973,13.5779677 9.65170973,13.6225645 C9.65170973,13.6287742 9.64887788,13.6332903 9.6483115,13.6395 C10.0085239,14.7561129 11.0591434,15.5667581 12.2972319,15.5667581 C13.8309664,15.5667581 15.0786832,14.3225645 15.0786832,12.7938548 C15.0786832,12.6578065 15.0656566,12.5245806 15.0464,12.3936129 C14.9999575,12.3868387 14.9546478,12.3766774 14.9076389,12.3693387 C15.0078867,13.2245806 14.7439575,13.9460323 14.7297982,13.9844194 C14.6663646,14.1532097 14.505515,14.2570806 14.3344708,14.2570806 C14.2851965,14.2570806 14.2353558,14.2486129 14.1866478,14.2305484 C13.9685947,14.1486935 13.8575858,13.9065161 13.9397097,13.6891774 C13.9419752,13.6818387 14.2104354,12.9225645 14.0082407,12.1587742 C12.8114973,11.7878871 11.7818336,11.1195 10.9362407,10.3777258 C10.089515,10.8536129 9.51521416,11.7579677 9.51521416,12.7938548" id="Fill-69" fill="#93C9D1" mask="url(#mask-2)"></path>
                        <path d="M9.09321062,12.7938548 C9.09321062,13.0055484 9.11529912,13.2121613 9.15437876,13.412 L9.44096283,13.412 C9.51289204,13.412 9.57349381,13.4503871 9.61144071,13.5051452 C9.55083894,13.2776452 9.51515752,13.0399839 9.51515752,12.7938548 C9.51515752,11.7579677 10.0894584,10.8536129 10.9361841,10.3777258 C10.8251752,10.2800645 10.7192637,10.1812742 10.614485,10.0813548 C9.70319292,10.6453065 9.09321062,11.6484516 9.09321062,12.7938548" id="Fill-70" fill="#412219" mask="url(#mask-2)"></path>
                        <path d="M15.0787965,12.7938548 C15.0787965,14.3225645 13.8305133,15.5667581 12.2967788,15.5667581 C11.0586903,15.5667581 10.0080708,14.7561129 9.64842478,13.6395 C9.63936283,13.7473226 9.55157522,13.8325645 9.44056637,13.8325645 L9.27065487,13.8325645 C9.70449558,15.0840968 10.8955752,15.9867581 12.2967788,15.9867581 C12.8620177,15.9867581 13.3932743,15.8388548 13.8548673,15.5814355 C13.9958938,15.5029677 14.1295575,15.4126452 14.2564248,15.3144194 C15.0119646,14.7295806 15.5007434,13.8184516 15.5007434,12.7938548 C15.5007434,12.6674032 15.491115,12.5432097 15.4769558,12.4207097 C15.4684602,12.3484516 15.4571327,12.2778871 15.4441062,12.2073226 C15.3801062,12.2846613 15.3376283,12.3320806 15.3263009,12.3439355 L15.2526726,12.4252258 L15.1433628,12.4111129 C15.1105133,12.4065968 15.0787965,12.398129 15.0465133,12.3936129 C15.0657699,12.5245806 15.0787965,12.6578065 15.0787965,12.7938548" id="Fill-71" fill="#412219" mask="url(#mask-2)"></path>
                        <path d="M9.64848142,13.6395 C9.64904779,13.6332903 9.65187965,13.6282097 9.65187965,13.6225645 C9.65187965,13.5779677 9.6348885,13.5390161 9.61110088,13.5051452 C9.57315398,13.4503871 9.51255221,13.412 9.44062301,13.412 L9.15460531,13.412 L8.62051681,13.412 L8.35092389,13.412 C8.23425133,13.412 8.14023363,13.5062742 8.14023363,13.6225645 C8.14023363,13.7388548 8.23425133,13.8325645 8.35092389,13.8325645 L8.50384425,13.8325645 L9.2707115,13.8325645 L9.44062301,13.8325645 C9.55163186,13.8325645 9.63941947,13.7473226 9.64848142,13.6395" id="Fill-72" fill="#412219" mask="url(#mask-2)"></path>
                        <path d="M6.96348319,17.322121 C6.88758938,17.2340565 6.75449204,17.2244597 6.66613805,17.2989758 C6.57778407,17.3740565 6.56702301,17.5067177 6.64235044,17.5947823 C6.67406726,17.6320403 7.43583717,18.5098629 8.74302301,18.5098629 C10.0343504,18.5098629 10.9847221,17.6501048 11.0243681,17.6134113 C11.1098903,17.534379 11.115554,17.4017177 11.0362619,17.3164758 C10.9575363,17.2312339 10.8238726,17.2255887 10.7383504,17.304621 C10.7292885,17.3119597 9.8712354,18.0892984 8.74302301,18.0892984 C7.63689912,18.0892984 6.97027965,17.3300242 6.96348319,17.322121" id="Fill-73" fill="#412219" mask="url(#mask-2)"></path>
                        <path d="M8.72620177,15.9863629 C8.77207788,15.9903145 8.8156885,15.9920081 8.85816637,15.9920081 C9.14475044,15.9920081 9.34977699,15.9073306 9.46871504,15.7407984 C9.66637876,15.4630565 9.51515752,15.1012016 9.49703363,15.0605565 C9.44889204,14.9544274 9.32372389,14.9070081 9.21894513,14.9538629 C9.11246726,15.0007177 9.06375929,15.1249113 9.11133451,15.2310403 C9.13115752,15.2762016 9.17306903,15.428621 9.12436106,15.4974919 C9.08188319,15.5556371 8.94595398,15.5821694 8.76018407,15.5669274 C8.51777699,15.5477339 8.4396177,15.4884597 8.4316885,15.4692661 C8.41922832,15.4399113 8.46057345,15.343379 8.51211327,15.2818468 C8.58744071,15.1937823 8.57667965,15.061121 8.48832566,14.9866048 C8.39997168,14.9115242 8.26687434,14.921121 8.19098053,15.00975 C8.16266195,15.0419274 7.92082124,15.3371694 8.04202478,15.6295887 C8.1275469,15.8367661 8.35806018,15.9570081 8.72620177,15.9863629" id="Fill-74" fill="#412219" mask="url(#mask-2)"></path>
                        <polygon id="Fill-75" fill="#4A1C00" mask="url(#mask-2)" points="12.7809699 27.6065887 12.9406867 27.47675 12.7809699 27.47675"></polygon>
                        <polygon id="Fill-76" fill="#251312" mask="url(#mask-2)" points="12.7809699 27.6065887 12.9406867 27.47675 12.7809699 27.47675"></polygon>
                        <path d="M6.52901947,32.2073387 L6.52901947,30.5301613 L6.52901947,29.0245968 L6.52901947,27.4766935 L5.54976283,27.4766935 L4.72909027,27.4766935 L4.39323186,27.4766935 C4.32356814,27.4874194 2.04732035,27.8103226 1.44583363,30.3116935 C0.982541593,32.2400806 0.685762832,33.3629032 0.556630088,33.8370968 L5.10912566,33.8370968 L7.11578053,32.2073387 L6.52901947,32.2073387 Z" id="Fill-77" fill="#4A1C00" mask="url(#mask-2)"></path>
                        <path d="M6.52901947,32.2073387 L6.52901947,30.5301613 L6.52901947,29.0245968 L6.52901947,27.4766935 L5.54976283,27.4766935 L4.72909027,27.4766935 L4.39323186,27.4766935 C4.32356814,27.4874194 2.04732035,27.8103226 1.44583363,30.3116935 C0.982541593,32.2400806 0.685762832,33.3629032 0.556630088,33.8370968 L5.10912566,33.8370968 L7.11578053,32.2073387 L6.52901947,32.2073387 Z" id="Fill-78" fill="#230E00" mask="url(#mask-2)"></path>
                        <path d="M8.63133451,29.0247661 L6.95090973,29.0247661 L6.95090973,27.4768629 L8.53731681,27.4768629 L8.63133451,27.4768629 L8.63133451,29.0247661 Z M6.95090973,30.1097661 L8.63133451,30.1097661 L8.63133451,29.4453306 L6.95090973,29.4453306 L6.95090973,30.1097661 Z M1.44577699,30.3118629 C2.04726372,27.8104919 4.3235115,27.4875887 4.39317522,27.4768629 L4.72903363,27.4768629 L5.55027257,27.4768629 L6.52896283,27.4768629 L6.52896283,29.0247661 L6.52896283,30.5303306 L6.52896283,32.2075081 L7.11572389,32.2075081 L7.63338761,31.7869435 L6.95090973,31.7869435 L6.95090973,30.5303306 L8.63133451,30.5303306 L8.63133451,30.9762984 L8.85788319,30.7922661 L9.27983009,30.4496048 L9.27983009,30.1137177 L9.69328142,30.1137177 L10.2115115,29.6937177 L9.13936991,29.6937177 L9.13936991,27.4768629 L9.96117522,27.4768629 L12.3591929,27.4768629 L12.3591929,27.9493629 L12.7811398,27.6067016 L12.7811398,27.4768629 L12.9408566,27.4768629 L12.9482195,27.4706532 L13.1996885,27.2662984 C13.1996885,27.2662984 13.1073699,27.2662984 12.9482195,27.2657339 C12.4554761,27.2651694 11.2870513,27.2623468 9.96117522,27.2606532 C9.66383009,27.2606532 9.3596885,27.2600887 9.05328142,27.2600887 C8.88110442,27.2600887 8.70949381,27.2595242 8.53731681,27.2595242 C7.42892743,27.2583952 6.34206018,27.2583952 5.55027257,27.2600887 C4.96634336,27.2612177 4.54269735,27.2629113 4.39317522,27.2662984 C4.22213097,27.27025 4.10092743,27.2798468 4.00237876,27.2973468 C3.65292743,27.358879 3.60082124,27.5242823 2.78864425,27.9329919 C1.74595398,28.4579919 1.29342301,30.0634758 1.10821947,30.8108952 C0.922449558,31.5583145 0.279617699,34.0472661 0.279617699,34.0472661 L4.85023717,34.0472661 L5.10906903,33.8367016 L0.556573451,33.8367016 C0.685706195,33.3630726 0.982484956,32.24025 1.44577699,30.3118629 L1.44577699,30.3118629 Z" id="Fill-79" fill="#412219" mask="url(#mask-2)"></path>
                        <path d="M8.63133451,29.0247661 L6.95090973,29.0247661 L6.95090973,27.4768629 L8.53731681,27.4768629 L8.63133451,27.4768629 L8.63133451,29.0247661 Z M6.95090973,30.1097661 L8.63133451,30.1097661 L8.63133451,29.4453306 L6.95090973,29.4453306 L6.95090973,30.1097661 Z M1.44577699,30.3118629 C2.04726372,27.8104919 4.3235115,27.4875887 4.39317522,27.4768629 L4.72903363,27.4768629 L5.55027257,27.4768629 L6.52896283,27.4768629 L6.52896283,29.0247661 L6.52896283,30.5303306 L6.52896283,32.2075081 L7.11572389,32.2075081 L7.63338761,31.7869435 L6.95090973,31.7869435 L6.95090973,30.5303306 L8.63133451,30.5303306 L8.63133451,30.9762984 L8.85788319,30.7922661 L9.27983009,30.4496048 L9.27983009,30.1137177 L9.69328142,30.1137177 L10.2115115,29.6937177 L9.13936991,29.6937177 L9.13936991,27.4768629 L9.96117522,27.4768629 L12.3591929,27.4768629 L12.3591929,27.9493629 L12.7811398,27.6067016 L12.7811398,27.4768629 L12.9408566,27.4768629 L12.9482195,27.4706532 L13.1996885,27.2662984 C13.1996885,27.2662984 13.1073699,27.2662984 12.9482195,27.2657339 C12.4554761,27.2651694 11.2870513,27.2623468 9.96117522,27.2606532 C9.66383009,27.2606532 9.3596885,27.2600887 9.05328142,27.2600887 C8.88110442,27.2600887 8.70949381,27.2595242 8.53731681,27.2595242 C7.42892743,27.2583952 6.34206018,27.2583952 5.55027257,27.2600887 C4.96634336,27.2612177 4.54269735,27.2629113 4.39317522,27.2662984 C4.22213097,27.27025 4.10092743,27.2798468 4.00237876,27.2973468 C3.65292743,27.358879 3.60082124,27.5242823 2.78864425,27.9329919 C1.74595398,28.4579919 1.29342301,30.0634758 1.10821947,30.8108952 C0.922449558,31.5583145 0.279617699,34.0472661 0.279617699,34.0472661 L4.85023717,34.0472661 L5.10906903,33.8367016 L0.556573451,33.8367016 C0.685706195,33.3630726 0.982484956,32.24025 1.44577699,30.3118629 L1.44577699,30.3118629 Z" id="Fill-80" fill="#230E00" mask="url(#mask-2)"></path>
                        <polygon id="Fill-81" fill="#F3AF42" mask="url(#mask-2)" points="9.96100531 27.4768065 9.1392 27.4768065 9.1392 29.6936613 10.2113416 29.6936613 12.359023 27.9493065 12.359023 27.4768065"></polygon>
                        <polygon id="Fill-82" fill="#9C6D26" mask="url(#mask-2)" points="9.96100531 27.4768065 9.1392 27.4768065 9.1392 29.6936613 10.2113416 29.6936613 12.359023 27.9493065 12.359023 27.4768065"></polygon>
                        <polygon id="Fill-83" fill="#F3AF42" mask="url(#mask-2)" points="8.63133451 30.5303306 6.95090973 30.5303306 6.95090973 31.7869435 7.63338761 31.7869435 8.63133451 30.9762984"></polygon>
                        <polygon id="Fill-84" fill="#9C6D26" mask="url(#mask-2)" points="8.63133451 30.5303306 6.95090973 30.5303306 6.95090973 31.7869435 7.63338761 31.7869435 8.63133451 30.9762984"></polygon>
                        <polygon id="Fill-85" fill="#F3AF42" mask="url(#mask-2)" points="6.95079646 27.4768065 6.95079646 29.0247097 8.63122124 29.0247097 8.63122124 27.4768065 8.53720354 27.4768065"></polygon>
                        <polygon id="Fill-86" fill="#9C6D26" mask="url(#mask-2)" points="6.95079646 27.4768065 6.95079646 29.0247097 8.63122124 29.0247097 8.63122124 27.4768065 8.53720354 27.4768065"></polygon>
                        <polygon id="Fill-87" fill="#850F18" mask="url(#mask-2)" points="9.27988673 30.1138306 9.27988673 30.4497177 9.69333805 30.1138306"></polygon>
                        <polygon id="Fill-88" fill="#5B0C0F" mask="url(#mask-2)" points="9.27988673 30.1138306 9.27988673 30.4497177 9.69333805 30.1138306"></polygon>
                        <polygon id="Fill-89" fill="#850F18" mask="url(#mask-2)" points="6.95107965 30.109879 8.63150442 30.109879 8.63150442 29.4454435 6.95107965 29.4454435"></polygon>
                        <polygon id="Fill-90" fill="#5B0C0F" mask="url(#mask-2)" points="6.95107965 30.109879 8.63150442 30.109879 8.63150442 29.4454435 6.95107965 29.4454435"></polygon>
                        <path d="M5.68138761,10.9382339 C5.69328142,10.9404919 6.83678584,11.1787177 7.13866195,11.9408145 C7.46715752,12.7706532 7.13866195,13.6812177 7.13583009,13.689121 C7.05427257,13.9064597 7.16471504,14.1486371 7.38220177,14.2304919 C7.43147611,14.2485565 7.48131681,14.2570242 7.53115752,14.2570242 C7.7016354,14.2570242 7.86248496,14.1531532 7.92591858,13.9843629 C7.94460885,13.93525 8.37335221,12.7683952 7.92308673,11.6320242 C7.44790088,10.4324274 5.9056708,10.1247661 5.84053805,10.1123468 C5.61455575,10.068879 5.39027257,10.2179113 5.34666195,10.4459758 C5.30305133,10.6740403 5.45257345,10.8942016 5.68138761,10.9382339" id="Fill-91" fill="#93C9D1" mask="url(#mask-2)"></path>
                        <path d="M5.68138761,10.9382339 C5.69328142,10.9404919 6.83678584,11.1787177 7.13866195,11.9408145 C7.46715752,12.7706532 7.13866195,13.6812177 7.13583009,13.689121 C7.05427257,13.9064597 7.16471504,14.1486371 7.38220177,14.2304919 C7.43147611,14.2485565 7.48131681,14.2570242 7.53115752,14.2570242 C7.7016354,14.2570242 7.86248496,14.1531532 7.92591858,13.9843629 C7.94460885,13.93525 8.37335221,12.7683952 7.92308673,11.6320242 C7.44790088,10.4324274 5.9056708,10.1247661 5.84053805,10.1123468 C5.61455575,10.068879 5.39027257,10.2179113 5.34666195,10.4459758 C5.30305133,10.6740403 5.45257345,10.8942016 5.68138761,10.9382339" id="Fill-92" fill="#C6E3E7" mask="url(#mask-2)"></path>
                        <path d="M13.9394265,13.689121 C13.857869,13.9064597 13.9683115,14.1486371 14.1863646,14.2304919 C14.2350726,14.2485565 14.2849133,14.2570242 14.334754,14.2570242 C14.5052319,14.2570242 14.6660814,14.1531532 14.7300814,13.9843629 C14.7442407,13.9459758 15.0076035,13.2245242 14.9073558,12.3692823 C14.5986832,12.3173468 14.2979398,12.2490403 14.0079575,12.1592823 C14.2101522,12.9225081 13.9422584,13.6817823 13.9394265,13.689121" id="Fill-93" fill="#93C9D1" mask="url(#mask-2)"></path>
                        <path d="M13.9394265,13.689121 C13.857869,13.9064597 13.9683115,14.1486371 14.1863646,14.2304919 C14.2350726,14.2485565 14.2849133,14.2570242 14.334754,14.2570242 C14.5052319,14.2570242 14.6660814,14.1531532 14.7300814,13.9843629 C14.7442407,13.9459758 15.0076035,13.2245242 14.9073558,12.3692823 C14.5986832,12.3173468 14.2979398,12.2490403 14.0079575,12.1592823 C14.2101522,12.9225081 13.9422584,13.6817823 13.9394265,13.689121" id="Fill-94" fill="#C6E3E7" mask="url(#mask-2)"></path>
                        <path d="M5.57383363,16.6567258 C6.28123186,16.6567258 7.16590442,16.1977742 7.20328496,16.1774516 C7.30693097,16.1238226 7.34601062,15.9968065 7.29220531,15.8935 C7.2384,15.7907581 7.10926726,15.7518065 7.00732035,15.806 C6.99882478,15.8099516 6.17815221,16.2361613 5.5744,16.2361613 L5.56024071,16.2361613 C4.95195752,16.2288226 4.50962124,16.0306774 4.50509027,16.0284194 C4.4003115,15.9804355 4.27457699,16.0255968 4.22586903,16.1311613 C4.17659469,16.2367258 4.22303717,16.3614839 4.3283823,16.4100323 C4.34933805,16.419629 4.85227611,16.6482581 5.55514336,16.6567258 L5.57383363,16.6567258 Z" id="Fill-95" fill="#F9AE8E" mask="url(#mask-2)"></path>
                        <path d="M5.57383363,16.6567258 C6.28123186,16.6567258 7.16590442,16.1977742 7.20328496,16.1774516 C7.30693097,16.1238226 7.34601062,15.9968065 7.29220531,15.8935 C7.2384,15.7907581 7.10926726,15.7518065 7.00732035,15.806 C6.99882478,15.8099516 6.17815221,16.2361613 5.5744,16.2361613 L5.56024071,16.2361613 C4.95195752,16.2288226 4.50962124,16.0306774 4.50509027,16.0284194 C4.4003115,15.9804355 4.27457699,16.0255968 4.22586903,16.1311613 C4.17659469,16.2367258 4.22303717,16.3614839 4.3283823,16.4100323 C4.34933805,16.419629 4.85227611,16.6482581 5.55514336,16.6567258 L5.57383363,16.6567258 Z" id="Fill-96" fill="#FCC6B0" mask="url(#mask-2)"></path>
                        <path d="M13.5710584,15.9334113 C13.486669,15.8938952 13.3881204,15.8938952 13.3042973,15.9334113 C13.2997664,15.9351048 12.8749876,16.1242177 12.2933239,16.1309919 L12.2802973,16.1309919 C11.8022796,16.1309919 11.1203681,15.8295403 10.896085,15.7126855 C10.7414655,15.6319597 10.5505982,15.6912339 10.4684743,15.8453468 C10.3874832,15.9994597 10.4469522,16.1897016 10.6021381,16.2709919 C10.640085,16.2913145 11.546846,16.762121 12.2808637,16.762121 L12.3006867,16.762121 C12.6648637,16.7576048 12.9780673,16.6955081 13.2023504,16.6334113 C13.3076956,17.3097016 13.1678018,17.8928468 13.027908,18.1485726 C12.8647929,18.4455081 12.3527929,19.0286532 11.7756602,19.4909919 C11.3055717,19.8680887 9.8392354,20.5455081 9.31420885,20.7752661 C9.15392566,20.8452661 9.08086372,21.0309919 9.15109381,21.19075 C9.2032,21.3087339 9.31930619,21.3792984 9.44107611,21.3792984 C9.48355398,21.3792984 9.52659823,21.3708306 9.56794336,21.3527661 C9.64836814,21.3177661 11.5400496,20.4890565 12.1721204,19.9826855 C12.7634124,19.5090565 13.3564035,18.864379 13.5829522,18.4505887 C13.8366867,17.98825 13.9947044,17.0663952 13.742669,16.1366371 C13.718315,16.0474435 13.6554478,15.9723629 13.5710584,15.9334113" id="Fill-97" fill="#F9AE8E" mask="url(#mask-2)"></path>
                        <path d="M13.5710584,15.9334113 C13.486669,15.8938952 13.3881204,15.8938952 13.3042973,15.9334113 C13.2997664,15.9351048 12.8749876,16.1242177 12.2933239,16.1309919 L12.2802973,16.1309919 C11.8022796,16.1309919 11.1203681,15.8295403 10.896085,15.7126855 C10.7414655,15.6319597 10.5505982,15.6912339 10.4684743,15.8453468 C10.3874832,15.9994597 10.4469522,16.1897016 10.6021381,16.2709919 C10.640085,16.2913145 11.546846,16.762121 12.2808637,16.762121 L12.3006867,16.762121 C12.6648637,16.7576048 12.9780673,16.6955081 13.2023504,16.6334113 C13.3076956,17.3097016 13.1678018,17.8928468 13.027908,18.1485726 C12.8647929,18.4455081 12.3527929,19.0286532 11.7756602,19.4909919 C11.3055717,19.8680887 9.8392354,20.5455081 9.31420885,20.7752661 C9.15392566,20.8452661 9.08086372,21.0309919 9.15109381,21.19075 C9.2032,21.3087339 9.31930619,21.3792984 9.44107611,21.3792984 C9.48355398,21.3792984 9.52659823,21.3708306 9.56794336,21.3527661 C9.64836814,21.3177661 11.5400496,20.4890565 12.1721204,19.9826855 C12.7634124,19.5090565 13.3564035,18.864379 13.5829522,18.4505887 C13.8366867,17.98825 13.9947044,17.0663952 13.742669,16.1366371 C13.718315,16.0474435 13.6554478,15.9723629 13.5710584,15.9334113" id="Fill-98" fill="#FCC6B0" mask="url(#mask-2)"></path>
                        <path d="M2.43115044,12.5110323 C2.98619469,11.7449839 5.35589381,8.3753871 5.26753982,6.81562903 L5.17238938,5.13337097 L5.67929204,6.74054839 C5.71384071,6.85119355 6.51582301,9.3028871 8.91610619,9.57554839 C8.56495575,9.05393548 8.0280354,8.03272581 8.14130973,6.78458065 L8.20587611,6.06708065 L8.53890265,6.70667742 C8.56325664,6.75353226 11.0099823,11.3729677 15.0850265,11.9786935 C15.4299469,11.5654677 16.8962832,9.66982258 16.6295221,7.63474194 C16.2930973,5.06393548 13.8543009,0.985306452 8.74336283,0.985306452 C3.39511504,0.985306452 1.20835398,5.70240323 1.01692035,7.42079032 C0.81699115,9.21256452 1.07638938,11.575629 2.43115044,12.5110323" id="Fill-99" fill="#4A1C00" mask="url(#mask-2)"></path>
                        <path d="M1.01686372,7.42101613 C1.20829735,5.70262903 3.39505841,0.984967742 8.74330619,0.984967742 C13.8548106,0.984967742 16.2930407,5.06416129 16.6294655,7.63496774 C16.8962265,9.66948387 15.4298903,11.5656935 15.0849699,11.9783548 C11.0099257,11.3731935 8.5632,6.75375806 8.53884602,6.70690323 L8.20581947,6.06730645 L8.1412531,6.78480645 C8.02797876,8.0323871 8.56489912,9.05416129 8.91604956,9.57577419 C6.51576637,9.30254839 5.71378407,6.85085484 5.6792354,6.74077419 L5.17233274,5.13303226 L5.26748319,6.81529032 C5.35583717,8.3756129 2.98613805,11.7452097 2.43109381,12.5112581 C1.07633274,11.5758548 0.816934513,9.21279032 1.01686372,7.42101613 M1.69537699,12.4079516 C1.86698761,12.6015806 2.06181947,12.770371 2.27987257,12.9092419 C2.31385487,12.9306935 2.34500531,12.9560968 2.38012035,12.9758548 L2.54210265,13.069 L2.65424425,12.9194032 C2.66104071,12.910371 2.67689912,12.8894839 2.69955398,12.8584355 C2.90288142,12.5835161 3.70033274,11.4821452 4.42132389,10.2300484 C4.52270442,10.0539194 4.62295221,9.87496774 4.71980177,9.69432258 C5.10776637,8.96891935 5.44135929,8.2248871 5.5971115,7.58529032 C6.09778407,8.51617742 7.23505841,10.0206129 9.35838584,10.0206129 L9.83130619,10.0206129 L9.5152708,9.67004839 C9.50620885,9.6598871 8.75689912,8.81593548 8.58358938,7.61069355 C8.98627965,8.23956452 9.67272212,9.18851613 10.6140319,10.0815806 C10.7188106,10.1809355 10.8247221,10.2802903 10.9362973,10.3779516 C11.7818903,11.1197258 12.811554,11.7875484 14.007731,12.159 C14.2977133,12.2487581 14.5984566,12.317629 14.9076956,12.369 C14.9541381,12.3769032 14.9994478,12.3865 15.0464566,12.3938387 C15.0793062,12.3983548 15.1104566,12.4068226 15.1433062,12.4107742 L15.2526159,12.4248871 L15.3268106,12.3441613 C15.3375717,12.3323065 15.3800496,12.2848871 15.4440496,12.2075484 C15.4853947,12.157871 15.5375009,12.0912581 15.5952708,12.0173065 C16.1406867,11.3099677 17.3040142,9.54077419 17.0480142,7.58077419 C16.6928991,4.86827419 14.1244035,0.564403226 8.74330619,0.564403226 C3.10734159,0.564403226 0.799943363,5.55585484 0.597182301,7.37416129 C0.427270796,8.90117742 0.588120354,10.8222258 1.4291823,12.0658548 C1.51073982,12.1866613 1.60022655,12.3006935 1.69537699,12.4079516" id="Fill-100" fill="#412219" mask="url(#mask-2)"></path>
                        <path d="M14.3075115,26.357371 C14.481954,26.357371 14.6241133,26.2162419 14.6241133,26.0418065 L14.6241133,23.9903548 C14.6241133,23.8159194 14.481954,23.6747903 14.3075115,23.6747903 C14.1325027,23.6747903 13.9909097,23.8159194 13.9909097,23.9903548 L13.9909097,26.0418065 C13.9909097,26.2162419 14.1325027,26.357371 14.3075115,26.357371" id="Fill-101" fill="#F3AF42" mask="url(#mask-2)"></path>
                        <path d="M14.3075115,26.357371 C14.481954,26.357371 14.6241133,26.2162419 14.6241133,26.0418065 L14.6241133,23.9903548 C14.6241133,23.8159194 14.481954,23.6747903 14.3075115,23.6747903 C14.1325027,23.6747903 13.9909097,23.8159194 13.9909097,23.9903548 L13.9909097,26.0418065 C13.9909097,26.2162419 14.1325027,26.357371 14.3075115,26.357371" id="Fill-102" fill="#FFDC91" mask="url(#mask-2)"></path>
                        <path d="M11.8816283,31.4937339 C12.0566372,31.4937339 12.1982301,31.3526048 12.1982301,31.1781694 L12.1982301,30.4476855 C12.1982301,30.2738145 12.0566372,30.1326855 11.8816283,30.1326855 C11.7066195,30.1326855 11.5650265,30.2738145 11.5650265,30.4476855 L11.5650265,31.1781694 C11.5650265,31.3526048 11.7066195,31.4937339 11.8816283,31.4937339" id="Fill-103" fill="#850F18" mask="url(#mask-2)"></path>
                        <path d="M11.8816283,31.4937339 C12.0566372,31.4937339 12.1982301,31.3526048 12.1982301,31.1781694 L12.1982301,30.4476855 C12.1982301,30.2738145 12.0566372,30.1326855 11.8816283,30.1326855 C11.7066195,30.1326855 11.5650265,30.2738145 11.5650265,30.4476855 L11.5650265,31.1781694 C11.5650265,31.3526048 11.7066195,31.4937339 11.8816283,31.4937339" id="Fill-104" fill="#CF6C74" mask="url(#mask-2)"></path>
                        <path d="M12.1980035,33.2586371 L12.1980035,32.2780726 C12.1980035,32.1042016 12.0564106,31.9625081 11.8814018,31.9625081 C11.7069593,31.9625081 11.5653664,32.1042016 11.5653664,32.2780726 L11.5653664,33.2586371 C11.5653664,33.4330726 11.7069593,33.5742016 11.8814018,33.5742016 C12.0564106,33.5742016 12.1980035,33.4330726 12.1980035,33.2586371" id="Fill-105" fill="#F3AF42" mask="url(#mask-2)"></path>
                        <path d="M12.1980035,33.2586371 L12.1980035,32.2780726 C12.1980035,32.1042016 12.0564106,31.9625081 11.8814018,31.9625081 C11.7069593,31.9625081 11.5653664,32.1042016 11.5653664,32.2780726 L11.5653664,33.2586371 C11.5653664,33.4330726 11.7069593,33.5742016 11.8814018,33.5742016 C12.0564106,33.5742016 12.1980035,33.4330726 12.1980035,33.2586371" id="Fill-106" fill="#FFDC91" mask="url(#mask-2)"></path>
                    </g>
                </g>
            </g>
        </g>
    </g>
</svg>