<?xml version="1.0" encoding="utf-8"?>
<!-- Generator: Adobe Illustrator 21.0.0, SVG Export Plug-In . SVG Version: 6.00 Build 0)  -->
<svg version="1.1" id="Слой_1" xmlns="http://www.w3.org/2000/svg" xmlns:xlink="http://www.w3.org/1999/xlink" x="0px" y="0px"
	 viewBox="0 0 100 100" style="enable-background:new 0 0 100 100;" xml:space="preserve">
<style type="text/css">
	.st0{fill:#4A1C00;}
</style>
<g transform="translate(0,-952.36218)">
	<path class="st0" d="M27.8,1023.3c-1,1-1.1,2.5-0.3,3.2s2.2,0.5,3.2-0.5l41.5-44.6c1-1,1.1-2.5,0.3-3.2c-0.8-0.7-2.2-0.5-3.2,0.5
		L27.8,1023.3z"/>
</g>
<path class="st0" d="M72.2,71c1,1,1.1,2.5,0.3,3.2c-0.8,0.7-2.2,0.5-3.2-0.5L27.8,29.1c-1-1-1.1-2.5-0.3-3.2
	c0.8-0.7,2.2-0.5,3.2,0.5L72.2,71z"/>
</svg>
