<?xml version="1.0" encoding="utf-8"?>
<!-- Generator: Adobe Illustrator 21.0.0, SVG Export Plug-In . SVG Version: 6.00 Build 0)  -->
<svg version="1.1"
	 id="Слой_1" xmlns:cc="http://creativecommons.org/ns#" xmlns:dc="http://purl.org/dc/elements/1.1/" xmlns:inkscape="http://www.inkscape.org/namespaces/inkscape" xmlns:rdf="http://www.w3.org/1999/02/22-rdf-syntax-ns#" xmlns:sodipodi="http://sodipodi.sourceforge.net/DTD/sodipodi-0.dtd" xmlns:svg="http://www.w3.org/2000/svg"
	 xmlns="http://www.w3.org/2000/svg" xmlns:xlink="http://www.w3.org/1999/xlink" x="0px" y="0px" viewBox="0 0 100 98"
	 style="enable-background:new 0 0 100 98;" xml:space="preserve">
<style type="text/css">
	.st0{fill:#FFFFFF;}
</style>
<g transform="translate(0,-952.36218)">
	<path class="st0" d="M28.6,1027.4c-1,1-1.1,2.5-0.3,3.2s2.2,0.5,3.2-0.5L73,985.5c1-1,1.1-2.5,0.3-3.2c-0.8-0.7-2.2-0.5-3.2,0.5
		L28.6,1027.4z"/>
</g>
<path class="st0" d="M73,75c1,1,1.1,2.5,0.3,3.2c-0.8,0.7-2.2,0.5-3.2-0.5L28.6,33.1c-1-1-1.1-2.5-0.3-3.2c0.8-0.7,2.2-0.5,3.2,0.5
	L73,75z"/>
</svg>
