<?xml version="1.0" encoding="UTF-8"?>
<svg width="19px" height="18px" viewBox="0 0 19 18" version="1.1" xmlns="http://www.w3.org/2000/svg" xmlns:xlink="http://www.w3.org/1999/xlink">
    <!-- Generator: sketchtool 42 (36781) - http://www.bohemiancoding.com/sketch -->
    <title>E9A72657-B209-4E43-96EC-8DCF4AA420EB</title>
    <desc>Created with sketchtool.</desc>
    <defs></defs>
    <g id="Page-1" stroke="none" stroke-width="1" fill="none" fill-rule="evenodd">
        <g id="Desktop" transform="translate(-709.000000, -17.000000)">
            <g id="Menu" transform="translate(0.000000, -203.000000)">
                <g id="phone" transform="translate(709.000000, 220.000000)">
                    <path d="M7.18445,4.90342187 C7.43195,4.66107812 7.56845,4.33795312 7.56845,3.99573437 C7.56845,3.65204687 7.43195,3.32892187 7.18445,3.08657812 L5.28845,1.23154687 C4.77845,0.730703125 3.94445,0.730703125 3.43445,1.23154687 L2.45195,2.19357812 L6.20195,5.86545312 L7.18445,4.90342187 Z" id="Fill-12" fill="#84240C"></path>
                    <path d="M10.02485,13.02605 C8.99885,13.02605 7.88885,12.4473625 6.72035,11.304675 C5.45585,10.06505 4.86785,8.8929875 4.97435,7.8208 C5.03585,7.19070625 5.32685,6.745675 5.57735,6.463675 L1.84385,2.809425 C1.50635,3.2177375 0.96785,4.054925 0.92135,5.34889375 C0.84035,7.5593625 2.27585,10.176675 5.07335,12.9158937 C7.88135,15.6653937 10.52735,17.0695187 12.82685,16.9813937 C14.13185,16.9285187 14.98085,16.4056437 15.39485,16.0781125 L11.66285,12.4238625 C11.37635,12.6691437 10.92035,12.9540812 10.27835,13.0143 C10.19435,13.0231125 10.10885,13.02605 10.02485,13.02605" id="Fill-14" fill="#B83A2E"></path>
                    <path d="M15.1115,10.8495094 C14.6165,10.3648219 13.7525,10.3633531 13.2575,10.8495094 L12.275,11.8115406 L16.025,15.4834156 L17.0075,14.5213844 C17.5175,14.0205406 17.5175,13.2053844 17.0075,12.7045406 L15.1115,10.8495094 Z" id="Fill-16" fill="#84240C"></path>
                    <path d="M1.84445,2.8100125 L5.57645,6.4642625 C5.32745,6.74479375 5.03645,7.19129375 4.97345,7.81991875 C4.86695,8.89210625 5.45495,10.0641688 6.72095,11.3037938 C7.88945,12.44795 8.99945,13.0266375 10.02545,13.0266375 C10.10945,13.0266375 10.19495,13.0222313 10.27895,13.0148875 C10.92095,12.9532 11.37695,12.6682625 11.66345,12.4229813 L15.39395,16.0772313 C14.98145,16.4047625 14.13095,16.9291063 12.82745,16.9805125 C10.52795,17.0701063 7.88195,15.6659813 5.07395,12.9164813 C2.27645,10.1772625 0.84095,7.55995 0.92045,5.34948125 C0.96845,4.0555125 1.50545,3.21685625 1.84445,2.8100125 L1.84445,2.8100125 Z M3.43445,1.23110625 C3.94445,0.7302625 4.77845,0.7302625 5.28845,1.23110625 L7.18445,3.0861375 C7.43195,3.32995 7.56845,3.65160625 7.56845,3.99529375 C7.56845,4.33898125 7.43195,4.6606375 7.18445,4.90298125 L6.20195,5.8650125 L2.45195,2.1931375 L3.43445,1.23110625 Z M13.25645,10.84995 C13.75295,10.3637937 14.61695,10.3652625 15.11195,10.84995 L17.00645,12.7049812 C17.51795,13.205825 17.51795,14.0209812 17.00645,14.521825 L16.02545,15.4838562 L12.27545,11.8119812 L13.25645,10.84995 Z M12.60995,17.8412 C12.69545,17.8412 12.77945,17.8397312 12.86345,17.8367937 C15.03845,17.7486687 16.19195,16.5487 16.33295,16.3930125 L16.33445,16.3915437 L17.62595,15.12695 C18.47795,14.2927 18.47795,12.9341062 17.62595,12.0998562 L15.72995,10.244825 C14.90645,9.4370125 13.46645,9.43554375 12.63845,10.244825 L11.34695,11.50795 C11.33645,11.5197 11.33345,11.5329187 11.32295,11.5446687 C11.31395,11.55495 11.30195,11.560825 11.29295,11.572575 C11.28995,11.57845 10.91795,12.0925125 10.19345,12.1615437 C9.38645,12.2452625 8.39645,11.7326687 7.33895,10.6986687 C6.28895,9.67054375 5.77145,8.7085125 5.84345,7.918325 C5.90645,7.20304375 6.42545,6.8402625 6.44945,6.82410625 C6.45995,6.8167625 6.46745,6.8050125 6.47645,6.7962 C6.48845,6.7873875 6.50045,6.78298125 6.51095,6.77416875 L7.80245,5.50810625 C8.21645,5.1042 8.44295,4.5666375 8.44295,3.99529375 C8.44295,3.42248125 8.21645,2.88491875 7.80245,2.4810125 L5.90645,0.62598125 C5.05595,-0.20826875 3.66845,-0.2097375 2.81645,0.62598125 L1.52495,1.890575 C1.37045,2.02423125 0.13745,3.15516875 0.04895,5.28779375 C-0.05605,7.7861375 1.42745,10.5547312 4.45595,13.5216062 C7.38545,16.390075 10.12595,17.8412 12.60995,17.8412 L12.60995,17.8412 Z" id="Fill-18" fill="#3A211C"></path>
                </g>
            </g>
        </g>
    </g>
</svg>